<?xml version="1.0" encoding="utf-8"?>
<!-- Generator: Adobe Illustrator 16.0.4, SVG Export Plug-In . SVG Version: 6.00 Build 0)  -->
<!DOCTYPE svg PUBLIC "-//W3C//DTD SVG 1.1//EN" "http://www.w3.org/Graphics/SVG/1.1/DTD/svg11.dtd">
<svg version="1.1" id="Слой_1" xmlns="http://www.w3.org/2000/svg" xmlns:xlink="http://www.w3.org/1999/xlink" x="0px" y="0px"
	 width="120px" height="120px" viewBox="0 0 120 120" enable-background="new 0 0 120 120" xml:space="preserve">
<g>
	<path fill="#37474f" d="M105,15c0-5,0-10,0-15H82.5c0,5,0,10,0,15H71.25c0-5,0-10,0-15h-22.5c0,5,0,10,0,15H37.5c0-5,0-10,0-15H15
		c0,5,0,10,0,15H0c0,1.25,0,2.5,0,3.75c0,5,0,10,0,15c0,1.25,0,2.5,0,3.75h15c0,3.75,0,7.5,0,11.25H0c0,1.25,0,2.5,0,3.75
		c0,5,0,10,0,15c0,1.25,0,2.5,0,3.75h15c0,3.75,0,7.5,0,11.25H0c0,1.25,0,2.5,0,3.75c0,5,0,10,0,15c0,1.25,0,2.5,0,3.75h15
		c0,5,0,10,0,15h22.5c0-5,0-10,0-15h11.25c0,5,0,10,0,15h22.5c0-5,0-10,0-15H82.5c0,5,0,10,0,15H105c0-5,0-10,0-15h15
		c0-1.25,0-2.5,0-3.75c0-5,0-10,0-15c0-1.25,0-2.5,0-3.75h-15c0-3.75,0-7.5,0-11.25h15c0-1.25,0-2.5,0-3.75c0-5,0-10,0-15
		c0-1.25,0-2.5,0-3.75h-15c0-3.75,0-7.5,0-11.25h15c0-1.25,0-2.5,0-3.75c0-5,0-10,0-15c0-1.25,0-2.5,0-3.75H105z M67.5,33.75h-15
		c0-5,0-10,0-15h15C67.5,23.75,67.5,28.75,67.5,33.75z M18.75,18.75h15c0,5,0,10,0,15h-15C18.75,28.75,18.75,23.75,18.75,18.75z
		 M37.5,37.5h11.25c0,3.75,0,7.5,0,11.25H37.5C37.5,45,37.5,41.25,37.5,37.5z M67.5,67.5h-15c0-5,0-10,0-15h15
		C67.5,57.5,67.5,62.5,67.5,67.5z M18.75,52.5h15c0,5,0,10,0,15h-15C18.75,62.5,18.75,57.5,18.75,52.5z M37.5,71.25h11.25
		c0,3.75,0,7.5,0,11.25H37.5C37.5,78.75,37.5,75,37.5,71.25z M67.5,101.25h-15c0-5,0-10,0-15h15C67.5,91.25,67.5,96.25,67.5,101.25z
		 M18.75,86.25h15c0,5,0,10,0,15h-15C18.75,96.25,18.75,91.25,18.75,86.25z M101.25,101.25h-15c0-5,0-10,0-15h15
		C101.25,91.25,101.25,96.25,101.25,101.25z M82.5,82.5H71.25c0-3.75,0-7.5,0-11.25H82.5C82.5,75,82.5,78.75,82.5,82.5z
		 M101.25,67.5h-15c0-5,0-10,0-15h15C101.25,57.5,101.25,62.5,101.25,67.5z M82.5,48.75H71.25c0-3.75,0-7.5,0-11.25H82.5
		C82.5,41.25,82.5,45,82.5,48.75z M101.25,33.75h-15c0-5,0-10,0-15h15C101.25,23.75,101.25,28.75,101.25,33.75z"/>
</g>
<path fill="none" d="M0.417,17.083c5.531,0,10.985,0.173,16.25,0"/>
</svg>
