<?xml version="1.0" standalone="no"?>
<!DOCTYPE svg PUBLIC "-//W3C//DTD SVG 1.1//EN" "http://www.w3.org/Graphics/SVG/1.1/DTD/svg11.dtd" >
<svg xmlns="http://www.w3.org/2000/svg">
<metadata></metadata>
<defs>
<font id="mono_ii_web_40regular" horiz-adv-x="1344" >
<font-face units-per-em="2048" ascent="1638" descent="-410" />
<missing-glyph horiz-adv-x="1539" />
<glyph d="M-5 98v722h195v237h382v-237h195v237h384v-237h194v-236h-194v-486h194v-236h-194v-249h-384v249h-195v-249h-382v485h-195zM572 1057v249h195v-249h-195zM767 1306v236h185v-236h-185z" />
<glyph d="M-5 98v722h195v237h382v-237h195v237h384v-237h194v-236h-194v-486h194v-236h-194v-249h-384v249h-195v-249h-382v485h-195zM572 1057v249h195v-249h-195zM767 1306v236h185v-236h-185z" />
<glyph unicode="&#xd;" horiz-adv-x="640" />
<glyph unicode=" "  horiz-adv-x="1539" />
<glyph unicode="&#x09;" horiz-adv-x="1539" />
<glyph unicode="&#xa0;" horiz-adv-x="1539" />
<glyph unicode="!" d="M577 92h195v-230h-195v230zM577 340v1202h195v-1202h-195z" />
<glyph unicode="&#x22;" d="M384 826v716h188v-716h-188zM772 826v716h189v-716h-189z" />
<glyph unicode="#" d="M185 347v230h199v249h-199v231h199v485h188v-485h200v485h185v-485h194v-231h-194v-249h194v-230h-194v-485h-185v485h-200v-485h-188v485h-199zM572 577v249h200v-249h-200z" />
<glyph unicode="$" d="M190 104v231h387v249h-198v242h198v231h-198v242h198v237h185v-237h389v-242h-389v-231h195v-242h-195v-249h195v-231h-195v-237h-185v237h-387zM190 826v231h189v-231h-189zM957 335v249h194v-249h-194z" />
<glyph unicode="%" d="M195 98v237h184v-237h-184zM195 1062v480h377v-480h-377zM379 335v249h193v-249h-193zM572 584v242h195v-242h-195zM767 -138v473h384v-473h-384zM767 826v236h190v-236h-190zM957 1062v231h194v-231h-194z" />
<glyph unicode="&#x26;" d="M190 98v479h189v-479h-189zM190 826v480h189v-480h-189zM379 98h393v-243h-393v243zM379 577v249h198v-249h-198zM379 1306v236h198v-236h-198zM577 335v242h195v-242h-195zM577 826v480h195v-480h-195zM772 98v237h189v-237h-189zM961 98h194v-243h-194v243zM961 335 v242h194v-242h-194z" />
<glyph unicode="'" d="M577 832v710h190v-710h-190z" />
<glyph unicode="(" d="M190 340v717h189v-717h-189zM379 92v248h193v-248h-193zM379 1057v242h193v-242h-193zM572 92h195v-230h-195v230zM572 1299v243h195v-243h-195z" />
<glyph unicode=")" d="M577 98h195v-243h-195v243zM577 1306v230h195v-230h-195zM772 98v237h189v-237h-189zM772 1057v249h189v-249h-189zM961 335v722h190v-722h-190z" />
<glyph unicode="*" d="M190 98v237h189v-237h-189zM190 1057v242h189v-242h-189zM379 335v249h198v242h-198v231h198v485h190v-485h194v-231h-194v-242h194v-249h-194v-473h-190v473h-198zM961 98v237h190v-237h-190zM961 1057v242h190v-242h-190z" />
<glyph unicode="+" d="M190 584v236h393v479h179v-479h389v-236h-389v-480h-179v480h-393z" />
<glyph unicode="," d="M384 92h188v-230h-188v230zM572 92v485h195v-485h-195z" />
<glyph unicode="-" d="M190 584v242h965v-242h-965z" />
<glyph unicode="." d="M577 92h195v-230h-195v230z" />
<glyph unicode="/" d="M190 98v237h189v-237h-189zM384 340v237h188v-237h-188zM572 584v236h190v-236h-190zM762 820v237h190v-237h-190zM952 1057v236h189v-236h-189z" />
<glyph unicode="0" d="M190 92v1207h189v-715h198v-249h-198v-243h-189zM379 92h578v-237h-578v237zM379 1299v243h578v-243h-578zM577 584v236h190v-236h-190zM767 820v242h190v237h194v-1207h-194v728h-190z" />
<glyph unicode="1" d="M384 92h193v965h-193v249h193v242h195v-1456h180v-230h-568v230z" />
<glyph unicode="2" d="M185 -138h966v224h-767v254h-199v-478zM185 1057v242h199v237h573v-237h-573v-242h-199zM384 340v249h299v-249h-299zM683 560v260h274v479h194v-479h-194v479v-739h-274z" />
<glyph unicode="3" d="M190 98v237h194v-237h-194zM190 1306v236h961v-480h-194v244h-767zM384 98h573v-236h-573v236zM572 584v236h200v242h185v-478h-385zM957 98v486h194v-486h-194z" />
<glyph unicode="4" d="M185 347v479h199v-242h383v473h-231v242h231v243h194v-958h194v-237h-194v-492h-194v492h-582zM384 826v231h152v-231h-152z" />
<glyph unicode="5" d="M195 98v237h184v-237h-184zM195 820v716h956v-237h-772v-237h578v-242h-762zM379 98h578v-243h-578v243zM957 98v722h194v-722h-194z" />
<glyph unicode="6" d="M185 92v965h194v-237h578v-236h-578v-492h-194zM379 92h578v-230h-578v230zM379 1057v249h198v-249h-198zM577 1306v236h574v-236h-574zM957 92v492h194v-492h-194z" />
<glyph unicode="7" d="M190 1306v236h965v-485h-194v249h-771zM384 -150v734h193v-734h-193zM577 584v236h195v-236h-195zM772 820v237h189v-237h-189z" />
<glyph unicode="8" d="M185 92v492h194v-492h-194zM185 820v479h194v-479h-194zM379 92h582v-230h-582v230zM379 584v236h582v-236h-582zM379 1299v243h582v-243h-582zM961 92v492h190v-492h-190zM961 820v479h190v-479h-190z" />
<glyph unicode="9" d="M185 92h587v-237h-587v237zM185 826v473h199v-473h-199zM384 584v242h577v473h194v-959h-194v244h-577zM384 1299v243h577v-243h-577zM772 92v248h189v-248h-189z" />
<glyph unicode=":" d="M577 335v242h190v-242h-190zM577 820v242h190v-242h-190z" />
<glyph unicode=";" d="M384 98h193v-243h-193v243zM577 98v479h190v-479h-190zM577 820v237h190v-237h-190z" />
<glyph unicode="&#x3c;" d="M190 584v242h194v-242h-194zM384 340v244h193v-244h-193zM384 826v236h193v-236h-193zM384 826v236h193v-236h-193zM384 826v236h193v-236h-193zM384 826v236h193v-236h-193zM384 826v236h193v-236h-193zM577 98v242h195v-242h-195zM577 1062v237h195v-237h-195zM772 98 h185v-243h-185v243zM772 1299v243h185v-243h-185z" />
<glyph unicode="=" d="M190 335v242h961v-242h-961zM190 820v237h961v-237h-961z" />
<glyph unicode="&#x3e;" d="M385 94h185v-243h-185v243zM385 1295v243h185v-243h-185zM570 94v243h194v-243h-194zM570 1058v237h194v-237h-194zM764 337v242h194v-242h-194zM764 822v236h194v-236h-194zM764 822v236h194v-236h-194zM764 822h194v236h-194v-236zM764 822v236h194v-236h-194zM764 822 h194v236h-194v-236zM958 579v243h194v-243h-194z" />
<glyph unicode="?" d="M190 1062v237h189v-237h-189zM379 1299v243h582v-243h-582zM577 92h195v-230h-195v230zM577 340v480h195v-480h-195zM772 820v242h189v-242h-189zM961 1062v237h190v-237h-190z" />
<glyph unicode="@" d="M185 92v1214h199v-1214h-199zM384 92v-225h762v225h-762zM384 1306v236h573v-236h-573zM577 335v716h195v-225h185v480h189v-722h-189v-249h-380z" />
<glyph unicode="A" d="M185 -127v1184h194v-473h578v473h194v-1184h-194v467h-578v-467h-194zM379 1057v242h193v-242h-193zM572 1299v237h172v-237h-172h385v-242h-213v242h-172z" />
<glyph unicode="B" d="M185 -138v1674h767v-225h-568v-485h568v-249h-568v-485h568v-230h-767zM952 92v485h199v-485h-199zM952 826v485h199v-485h-199z" />
<glyph unicode="C" d="M190 104h194v1195h-194v-1195zM384 104v-237h568v237h-568zM384 1299v243h568v-243h-568zM952 104h194v231h-194v-231zM952 1069h194v230h-194v-230z" />
<glyph unicode="D" d="M190 -133v1663h762v-237h-573v-1201h573v-225h-762zM952 92v1201h199v-1201h-199z" />
<glyph unicode="E" d="M195 -133v1675h956v-243h-772v-473h573v-242h-573v-486h772v-231h-956z" />
<glyph unicode="F" d="M190 -133v1669h956v-230h-762v-480h573v-242h-573v-717h-194z" />
<glyph unicode="G" d="M190 92v1214h198v-1214h-198zM388 92v-225h767v705h-379v-232h181v-248h-569zM388 1306v236h767v-236h-767z" />
<glyph unicode="H" d="M195 -133v1669h184v-710h578v710h198v-1669h-198v722h-578v-722h-184z" />
<glyph unicode="I" d="M379 98h198v1213h-198v231h578v-231h-195v-1213h195v-231h-578v231z" />
<glyph unicode="J" d="M190 92v243h189v-243h-189zM379 92h573v-225h-573v225zM952 92v1444h199v-1444h-199z" />
<glyph unicode="K" d="M190 -133v1669h189v-710h193v-242h-193v-717h-189zM572 335v249h195v-249h-195zM572 826v236h195v-236h-195zM767 92v243h194v-243h-194zM767 1062v231h194v-231h-194zM961 92h185v-225h-185v225zM961 1293v243h185v-243h-185z" />
<glyph unicode="L" d="M190 -138v1680h194v-1456h771v-224h-965z" />
<glyph unicode="M" d="M190 -145v1681h194v-230h188v-244h-188v-1207h-194zM572 577v485h190v-485h-190zM762 1062v244h199v230h190v-1681h-190v1207h-199z" />
<glyph unicode="N" d="M195 -133v1675h179v-480h194v-248h-194v-947h-179zM568 577v237h199v-237h-199zM767 335v242h190v965h194v-1675h-194v468h-190z" />
<glyph unicode="O" d="M190 104v1195h189v-1195h-189zM379 104h573v-249h-573v249zM379 1299v243h573v-243h-573zM952 104v1195h189v-1195h-189z" />
<glyph unicode="P" d="M185 -133v1675h776v-236h-582v-480h582v-249h-582v-710h-194zM961 826v480h190v-480h-190z" />
<glyph unicode="Q" d="M190 98v1201h194v-1201h-194zM384 98h407v-236h-407v236zM384 1299v243h573v-243h-573zM614 294h166v249h-166v-249zM780 98h177v249h-177v-249zM957 98h189v-236h-189v236zM957 347v952h189v-952h-189z" />
<glyph unicode="R" d="M190 -138v1680h771v-236h-577v-486h577v-231h-189v-249h-200v249h-188v-727h-194zM772 98v242h189v-242h-189zM961 98h190v-236h-190v236zM961 820v486h190v-486h-190z" />
<glyph unicode="S" d="M185 104v236h194v-236h-194zM185 832v467h194v-467h-194zM379 104h582v-249h-582v249zM379 577v255h582v-255h-582zM379 1299v243h582v-243h-582zM961 104v473h194v-473h-194zM961 1057v242h194v-242h-194z" />
<glyph unicode="T" d="M185 1306v230h966v-230h-384v-1451h-195v1451h-387z" />
<glyph unicode="U" d="M185 92v1450h194v-1450h-194zM379 92h578v-225h-578v225zM957 92v1450h194v-1450h-194z" />
<glyph unicode="V" d="M185 335v1207h194v-1207h-194zM379 98v237h198v-237h-198zM577 98h190v-243h-190v243zM767 98v237h194v-237h-194zM961 335v1207h190v-1207h-190z" />
<glyph unicode="W" d="M185 -133v1675h194v-1202h193v-242h-193v-231h-194zM572 340v480h190v-480h-190zM762 98h199v-231h190v1675h-190v-1202h-199v-242z" />
<glyph unicode="X" d="M190 -138v473h194v-473h-194zM190 1062v480h194v-480h-194zM384 335v242h188v-242h-188zM384 832h188v230h-188v-230zM572 577v255h195v-255h-195zM767 335v242h190v-242h-190zM767 832v230h190v-230h-190zM957 -138v473h198v-473h-198zM957 1062v480h198v-480h-198z" />
<glyph unicode="Y" d="M185 1057v485h199v-485h-199zM384 832h188v225h-188v-225zM572 -145v977h195v-977h-195zM767 832v225h194v-225h-194zM961 1057v485h190v-485h-190z" />
<glyph unicode="Z" d="M190 -133h965v225h-767v248h-198v-473zM190 1306v236h965v-480h-194v244h-771zM388 340v244h189v-244h-189zM577 584v242h195v-242h-195zM772 826v236h189v-236h-189z" />
<glyph unicode="[" d="M190 -133v1669h929v-230h-528v-1208h528v-231h-929z" />
<glyph unicode="\" d="M190 1057v242h194v-242h-194zM384 820v237h193v-237h-193zM577 589v231h190v-231h-190zM767 340v249h190v-249h-190zM957 104v236h194v-236h-194z" />
<glyph unicode="]" d="M212 98h537v1208h-537v236h939v-1687h-939v243z" />
<glyph unicode="^" d="M190 335h189v242h-189v-242zM379 577v243h198v-243h-198zM577 820v237h195v-237h-195zM772 577v243h185v-243h-185zM957 335v242h194v-242h-194z" />
<glyph unicode="_" d="M0 -138h1345v-249h-1345v249z" />
<glyph unicode="`" d="M384 1299v243h188v-243h-188zM572 1057v242h200v-242h-200zM772 826v231h185v-231h-185z" />
<glyph unicode="a" d="M190 92v248h189v-248h-189zM379 92h582v248h-582v237h582v249h190v-959h-772v225zM379 826v236h582v-236h-582z" />
<glyph unicode="b" d="M190 -133v1675h189v-485h578v-231h-578v-728h578v-231h-767zM957 98v728h189v-728h-189z" />
<glyph unicode="c" d="M185 92v734h199v-734h-199zM384 92h767v-237h-767v237zM384 826v236h767v-236h-767z" />
<glyph unicode="d" d="M185 92v734h199v-734h-199zM384 92h577v734h-577v231h577v485h194v-1680h-771v230z" />
<glyph unicode="e" d="M185 92v734h199v-242h573v242h194v-479h-767v-255h-199zM384 92h767v-230h-767v230zM384 826v236h573v-236h-573z" />
<glyph unicode="f" d="M185 584v242h199v480h193v-480h380v-242h-380v-729h-193v729h-199zM485 1306v236h472v-236h-472zM957 1062v244h198v-244h-198z" />
<glyph unicode="g" d="M190 340v486h189v-486h-189zM379 98v242h578v486h194v-964h-194v236h-578zM379 -138h578v-249h-578v249zM379 826v231h578v-231h-578z" />
<glyph unicode="h" d="M190 -138v1680h194v-480h577v-236h-577v-964h-194zM961 -138v964h190v-964h-190z" />
<glyph unicode="i" d="M384 92h188v734h-188v231h388v-965h189v-230h-577v230zM572 1299v237h200v-237h-200z" />
<glyph unicode="j" d="M190 92h189v-237h-189v237zM379 -145h388v-237h-388v237zM577 826v236h384v-1207h-194v971h-190zM767 1311v225h194v-225h-194z" />
<glyph unicode="k" d="M185 -138v1680h199v-958h383v-244h-383v-478h-199zM767 98v242h194v-242h-194zM767 584v242h194v-242h-194zM961 98h190v-236h-190v236zM961 826v225h190v-225h-190z" />
<glyph unicode="l" d="M379 92h193v1207h-193v243h393v-1450h189v-237h-582v237z" />
<glyph unicode="m" d="M185 -138v1200h392v-242h-193v-958h-199zM577 92v728h195v-728h-195zM772 820v242h374v-1200h-181v958h-193z" />
<glyph unicode="n" d="M190 -133v1195h771v-236h-577v-959h-194zM961 -133v959h190v-959h-190z" />
<glyph unicode="o" d="M190 92v734h189v-734h-189zM379 92h582v-237h-582v237zM379 826v236h582v-236h-582zM961 92v734h194v-734h-194z" />
<glyph unicode="p" d="M185 -387v1449h772v-242h-573v-480h573v-242h-573v-485h-199zM957 340v480h194v-480h-194z" />
<glyph unicode="q" d="M190 335v485h194v-485h-194zM384 92v243h577v485h-577v237h771v-1444h-194v479h-577z" />
<glyph unicode="r" d="M185 -138v1195h194v-231h231v-242h-231v-722h-194zM572 826v231h583v-231h-583z" />
<glyph unicode="s" d="M190 92h767v-237h-767v237zM190 584v242h189v-242h-189zM379 340v244h578v-244h-578zM379 826v231h772v-231h-772zM957 92v248h194v-248h-194z" />
<glyph unicode="t" d="M190 820v242h194v474h193v-474h384v-242h-384v-728h-193v728h-194zM485 92h476v-225h-476v225zM961 92v243h190v-243h-190z" />
<glyph unicode="u" d="M185 98v959h194v-959h-194zM379 98h434v-243h-434v243zM693 98v242h268v717h194v-1202h-194v243h-268z" />
<glyph unicode="v" d="M190 335v722h189v-722h-189zM379 98v237h193v-237h-193zM572 98h200v-236h-200v236zM772 98v237h185v-237h-185zM957 335v722h198v-722h-198z" />
<glyph unicode="w" d="M185 -145v1202h199v-959h188v-243h-387zM572 98v479h195v-479h-195zM767 98h190v959h194v-1202h-384v243z" />
<glyph unicode="x" d="M190 98h189v-236h-189v236zM190 820v237h189v-237h-189zM379 98v242h193v-242h-193zM379 577v243h193v-243h-193zM572 340v237h195v-237h-195zM767 98v242h190v-242h-190zM767 577v243h190v-243h-190zM957 98h198v-236h-198v236zM957 820h198v237h-198v-237z" />
<glyph unicode="y" d="M185 335v722h199v-722h-199zM384 104v231h577v722h194v-1202h-194v249h-577zM384 -145h577v-242h-577v242z" />
<glyph unicode="z" d="M190 98h194v237h193v-237h574v-243h-961v243zM190 820v237h961v-237h-190v-243h-189v243h-582zM577 335v242h195v-242h-195z" />
<glyph unicode="{" d="M190 577v243h194v479h193v243h569v-243h-374v-479h-195v-243h195v-485h374v-237h-569v237h-193v485h-194z" />
<glyph unicode="|" d="M577 -387v1929h190v-1929h-190z" />
<glyph unicode="}" d="M190 98h387v486h190v236h-190v479h-387v243h577v-243h190v-479h194v-236h-194v-486h-190v-231h-577v231z" />
<glyph unicode="~" d="M190 1062v237h194v-237h-194zM384 1299v243h383v-243h190v243h194v-243h-194v-237h-380v237h-193z" />
<glyph unicode="&#xa2;" d="M-5 98v722h190v-722h-190zM185 98h194v-243h193v-242h-387v485zM185 820v242h387v-242h-387zM572 98h195v-243h-195v243zM572 1062v237h195v-237h-195zM767 -145h388v-242h-388v242zM767 820v242h388v-242h-388zM767 1299v237h194v-237h-194zM961 98v479h194v-479h-194z M1155 98h195v-243h-195v243zM1155 577v243h195v-243h-195z" />
<glyph unicode="&#xa3;" d="M-5 98v722h190v-722h-190zM185 98h194v-243h193v-242h-387v485zM185 820v242h387v-242h-387zM572 98h195v-243h-195v243zM572 1062v237h195v-237h-195zM767 -145h388v-242h-388v242zM767 820v242h388v-242h-388zM767 1299v237h194v-237h-194zM961 98v479h194v-479h-194z M1155 98h195v-243h-195v243zM1155 577v243h195v-243h-195z" />
<glyph unicode="&#xa5;" d="M-5 98v722h190v-722h-190zM185 98h194v-243h193v-242h-387v485zM185 820v242h387v-242h-387zM572 98h195v-243h-195v243zM572 1062v237h195v-237h-195zM767 -145h388v-242h-388v242zM767 820v242h388v-242h-388zM767 1299v237h194v-237h-194zM961 98v479h194v-479h-194z M1155 98h195v-243h-195v243zM1155 577v243h195v-243h-195z" />
<glyph unicode="&#xa8;" d="M-5 98v722h190v-722h-190zM185 98h194v-243h193v-242h-387v485zM185 820v242h387v-242h-387zM572 98h195v-243h-195v243zM572 1062v237h195v-237h-195zM767 -145h388v-242h-388v242zM767 820v242h388v-242h-388zM767 1299v237h194v-237h-194zM961 98v479h194v-479h-194z M1155 98h195v-243h-195v243zM1155 577v243h195v-243h-195z" />
<glyph unicode="&#xa9;" d="M-5 98v722h190v-722h-190zM185 98h194v-243h193v-242h-387v485zM185 820v242h387v-242h-387zM572 98h195v-243h-195v243zM572 1062v237h195v-237h-195zM767 -145h388v-242h-388v242zM767 820v242h388v-242h-388zM767 1299v237h194v-237h-194zM961 98v479h194v-479h-194z M1155 98h195v-243h-195v243zM1155 577v243h195v-243h-195z" />
<glyph unicode="&#xab;" d="M-5 98v722h190v-722h-190zM185 98h194v-243h193v-242h-387v485zM185 820v242h387v-242h-387zM572 98h195v-243h-195v243zM572 1062v237h195v-237h-195zM767 -145h388v-242h-388v242zM767 820v242h388v-242h-388zM767 1299v237h194v-237h-194zM961 98v479h194v-479h-194z M1155 98h195v-243h-195v243zM1155 577v243h195v-243h-195z" />
<glyph unicode="&#xad;" d="M190 584v242h965v-242h-965z" />
<glyph unicode="&#xae;" d="M-5 92h772v248h-195v244h195v236h-582v237h772v249h-190v230h583v-716h-195v-236h195v-244h-195v-478h-776v-249h-194v249h-190v230zM-5 340v480h190v-480h-190z" />
<glyph unicode="&#xb4;" d="M-5 98v722h190v-722h-190zM185 98h194v-243h193v-242h-387v485zM185 820v242h387v-242h-387zM572 98h195v-243h-195v243zM572 1062v237h195v-237h-195zM767 -145h388v-242h-388v242zM767 820v242h388v-242h-388zM767 1299v237h194v-237h-194zM961 98v479h194v-479h-194z M1155 98h195v-243h-195v243zM1155 577v243h195v-243h-195z" />
<glyph unicode="&#xbb;" d="M-5 98v722h190v-722h-190zM185 98h194v-243h193v-242h-387v485zM185 820v242h387v-242h-387zM572 98h195v-243h-195v243zM572 1062v237h195v-237h-195zM767 -145h388v-242h-388v242zM767 820v242h388v-242h-388zM767 1299v237h194v-237h-194zM961 98v479h194v-479h-194z M1155 98h195v-243h-195v243zM1155 577v243h195v-243h-195z" />
<glyph unicode="&#x2c6;" d="M-5 98v722h195v237h382v-237h195v237h384v-237h194v-236h-194v-486h194v-236h-194v-249h-384v249h-195v-249h-382v485h-195zM572 1057v249h195v-249h-195zM767 1306v236h185v-236h-185z" />
<glyph unicode="&#x2dc;" d="M-5 347v230h195v243h194v237h193v242h190v-242h190v-237h194v-243h189v-230h-573v-480h-190v480h-582zM1151 92h189v-479h-189v479zM1151 1057v485h189v-485h-189z" />
<glyph unicode="&#x2000;" horiz-adv-x="774" />
<glyph unicode="&#x2001;" horiz-adv-x="1548" />
<glyph unicode="&#x2002;" horiz-adv-x="774" />
<glyph unicode="&#x2003;" horiz-adv-x="1548" />
<glyph unicode="&#x2004;" horiz-adv-x="516" />
<glyph unicode="&#x2005;" horiz-adv-x="387" />
<glyph unicode="&#x2006;" horiz-adv-x="258" />
<glyph unicode="&#x2007;" horiz-adv-x="258" />
<glyph unicode="&#x2008;" horiz-adv-x="193" />
<glyph unicode="&#x2009;" horiz-adv-x="309" />
<glyph unicode="&#x200a;" horiz-adv-x="86" />
<glyph unicode="&#x2010;" d="M190 584v242h965v-242h-965z" />
<glyph unicode="&#x2011;" d="M190 584v242h965v-242h-965z" />
<glyph unicode="&#x2012;" d="M190 584v242h965v-242h-965z" />
<glyph unicode="&#x2013;" d="M-5 577v243h582v479h190v-479h578v-243h-194v-237h-194v-242h-190v-236h-190v236h-193v242h-189v237h-200zM1151 98h194v-485h-194v485zM1151 1062v480h194v-480h-194z" />
<glyph unicode="&#x2014;" d="M-5 1306v230h1355v-230h-1355z" />
<glyph unicode="&#x2018;" d="M-5 584v242h190v-242h-190zM185 826v243h189v-243h-189zM374 1069v230h198v243h200v-243h185v-230h-185v-1456h-200v1456h-198zM957 826v243h189v-243h-189zM1146 584v242h189v-242h-189z" />
<glyph unicode="&#x2019;" d="M-5 98v237h195v249h189v236h198v-485h574v1207h194v-1444h-768v-485h-198v242h-189v243h-195z" />
<glyph unicode="&#x201a;" d="M-5 340v237h577v-237h195v-478h-195v236h-188v242h-389zM-5 826v231h577v-231h-577zM572 1057v242h385v-242h-385zM767 -138h578v-249h-578v249z" />
<glyph unicode="&#x201c;" d="M-5 1306v236h1350v-236h-1350z" />
<glyph unicode="&#x201d;" d="M-5 -387v1929h1160v-1929h-1160z" />
<glyph unicode="&#x201e;" d="M-5 577v243h582v479h190v-479h578v-243h-194v-237h-194v-242h-190v-236h-190v236h-193v242h-189v237h-200zM1151 98h194v-485h-194v485zM1151 1062v480h194v-480h-194z" />
<glyph unicode="&#x2022;" d="M-5 -145h772v-242h-772v242zM-5 1306v236h384v-236h-384zM152 584v236h190v242h208v244h217v236h194v-722h384v-236h-384v-729h-194v249h-217v236h-208v244h-190zM961 -145v-242h384v242h-384z" />
<glyph unicode="&#x2026;" d="M-5 98v242h195v-242h-195zM-5 -145h195v-242h-195v242zM-5 584v242h195v-242h-195zM-5 1062v244h195v-244h-195zM-5 1062v244h195v-244h-195zM190 98v-243h189v243h-189zM190 98v-243h189v243h-189zM190 340h189v244h-189v-244zM190 340h189v244h-189v-244zM190 826h189 v236h-189v-236zM190 826h189v236h-189v-236zM190 826h189v236h-189v-236zM190 1306v230h189v-230h-189zM379 98h198v242h-198v-242zM379 -145v-242h198v242h-198zM379 584h198v242h-198v-242zM379 584h198v242h-198v-242zM379 1062h198v244h-198v-244zM577 98v-243h190v243 h-190zM577 340h190v244h-190v-244zM577 826h190v236h-190v-236zM577 1306v230h190v-230h-190zM767 98h194v242h-194v-242zM767 -145v-242h194v242h-194zM767 584h194v242h-194v-242zM767 1062h194v244h-194v-244zM961 98v-243h190v243h-190zM961 340h190v244h-190v-244z M961 826h190v236h-190v-236zM961 1306v230h190v-230h-190zM1151 98h194v242h-194v-242zM1151 -145v-242h194v242h-194zM1151 584h194v242h-194v-242zM1151 1062v244h194v-244h-194z" />
<glyph unicode="&#x202f;" horiz-adv-x="309" />
<glyph unicode="&#x2039;" d="M-5 -138h195v236h194v-236h193v236h195v-236h189v236h190v-236h194v-249h-1350v249zM-5 1306v230h1350v-230h-194v-249h-190v249h-577v-237h-194v237h-195zM384 98v242h193v-242h-193zM384 826v236h193v-236h-193zM577 340v486h195v-486h-195zM772 98v242h189v-242h-189z M772 826v231h189v-231h-189z" />
<glyph unicode="&#x203a;" d="M-5 577v243h966v237h190v-237h194v-243h-194v-242h-190v242h-966zM577 98h195v-243h-195v243zM577 1299v243h195v-243h-195zM772 98v237h189v-237h-189zM772 1057v242h189v-242h-189z" />
<glyph unicode="&#x205f;" horiz-adv-x="387" />
<glyph unicode="&#x20ac;" d="M-5 584v236h190v-236h-190zM185 335v249h194v-249h-194zM379 -138v473h193v-473h-193zM572 335v249h190v-249h-190zM767 584v236h190v-236h-190zM957 820v237h194v-237h-194zM1151 1057v242h199v-242h-199z" />
<glyph unicode="&#x2122;" d="M-5 -387v1929h190v-1687h1160v-242h-1350z" />
<glyph unicode="&#xe000;" horiz-adv-x="1058" d="M0 0v1058h1058v-1058h-1058z" />
</font>
</defs>
</svg>
