<?xml version="1.0" standalone="no"?>
<!DOCTYPE svg PUBLIC "-//W3C//DTD SVG 1.1//EN" "http://www.w3.org/Graphics/SVG/1.1/DTD/svg11.dtd" >
<svg xmlns="http://www.w3.org/2000/svg">
<metadata></metadata>
<defs>
<font id="mono_ii_web_80regular" horiz-adv-x="839" >
<font-face units-per-em="2048" ascent="1638" descent="-410" />
<missing-glyph horiz-adv-x="962" />
<glyph d="M-3 98v722h121v237h240v-237h121v237h240v-237h121v-236h-121v-486h121v-236h-121v-249h-240v249h-121v-249h-240v485h-121zM358 1057v249h121v-249h-121zM479 1306v236h116v-236h-116z" />
<glyph d="M-3 98v722h121v237h240v-237h121v237h240v-237h121v-236h-121v-486h121v-236h-121v-249h-240v249h-121v-249h-240v485h-121zM358 1057v249h121v-249h-121zM479 1306v236h116v-236h-116z" />
<glyph unicode="&#xd;" horiz-adv-x="640" />
<glyph unicode=" "  horiz-adv-x="962" />
<glyph unicode="&#x09;" horiz-adv-x="962" />
<glyph unicode="&#xa0;" horiz-adv-x="962" />
<glyph unicode="!" d="M361 92h121v-230h-121v230zM361 340v1202h121v-1202h-121z" />
<glyph unicode="&#x22;" d="M240 826v716h118v-716h-118zM482 826v716h119v-716h-119z" />
<glyph unicode="#" d="M116 347v230h124v249h-124v231h124v485h118v-485h124v485h116v-485h121v-231h-121v-249h121v-230h-121v-485h-116v485h-124v-485h-118v485h-124zM358 577v249h124v-249h-124z" />
<glyph unicode="$" d="M118 104v231h243v249h-124v242h124v231h-124v242h124v237h116v-237h242v-242h-242v-231h121v-242h-121v-249h121v-231h-121v-237h-116v237h-243zM118 826v231h119v-231h-119zM598 335v249h121v-249h-121z" />
<glyph unicode="%" d="M121 98v237h116v-237h-116zM121 1062v480h237v-480h-237zM237 335v249h121v-249h-121zM358 584v242h121v-242h-121zM479 -138v473h240v-473h-240zM479 826v236h119v-236h-119zM598 1062v231h121v-231h-121z" />
<glyph unicode="&#x26;" d="M118 98v479h119v-479h-119zM118 826v480h119v-480h-119zM237 98h245v-243h-245v243zM237 577v249h124v-249h-124zM237 1306v236h124v-236h-124zM361 335v242h121v-242h-121zM361 826v480h121v-480h-121zM482 98v237h119v-237h-119zM601 98h121v-243h-121v243zM601 335 v242h121v-242h-121z" />
<glyph unicode="'" d="M361 832v710h118v-710h-118z" />
<glyph unicode="(" d="M118 340v717h119v-717h-119zM237 92v248h121v-248h-121zM237 1057v242h121v-242h-121zM358 92h121v-230h-121v230zM358 1299v243h121v-243h-121z" />
<glyph unicode=")" d="M361 98h121v-243h-121v243zM361 1306v230h121v-230h-121zM482 98v237h119v-237h-119zM482 1057v249h119v-249h-119zM601 335v722h118v-722h-118z" />
<glyph unicode="*" d="M118 98v237h119v-237h-119zM118 1057v242h119v-242h-119zM237 335v249h124v242h-124v231h124v485h118v-485h122v-231h-122v-242h122v-249h-122v-473h-118v473h-124zM601 98v237h118v-237h-118zM601 1057v242h118v-242h-118z" />
<glyph unicode="+" d="M118 584v236h246v479h113v-479h242v-236h-242v-480h-113v480h-246z" />
<glyph unicode="," d="M240 92h118v-230h-118v230zM358 92v485h121v-485h-121z" />
<glyph unicode="-" d="M118 584v242h604v-242h-604z" />
<glyph unicode="." d="M361 92h121v-230h-121v230z" />
<glyph unicode="/" d="M118 98v237h119v-237h-119zM240 340v237h118v-237h-118zM358 584v236h119v-236h-119zM477 820v237h118v-237h-118zM595 1057v236h118v-236h-118z" />
<glyph unicode="0" d="M118 92v1207h119v-715h124v-249h-124v-243h-119zM237 92h361v-237h-361v237zM237 1299v243h361v-243h-361zM361 584v236h118v-236h-118zM479 820v242h119v237h121v-1207h-121v728h-119z" />
<glyph unicode="1" d="M240 92h121v965h-121v249h121v242h121v-1456h113v-230h-355v230z" />
<glyph unicode="2" d="M116 -138h603v224h-479v254h-124v-478zM116 1057v242h124v237h358v-237h-358v-242h-124zM240 340v249h188v-249h-188zM428 560v260h170v479h121v-479h-121v479v-739h-170z" />
<glyph unicode="3" d="M118 98v237h122v-237h-122zM118 1306v236h601v-480h-121v244h-480zM240 98h358v-236h-358v236zM358 584v236h124v242h116v-478h-240zM598 98v486h121v-486h-121z" />
<glyph unicode="4" d="M116 347v479h124v-242h239v473h-144v242h144v243h122v-958h121v-237h-121v-492h-122v492h-363zM240 826v231h95v-231h-95z" />
<glyph unicode="5" d="M121 98v237h116v-237h-116zM121 820v716h598v-237h-482v-237h361v-242h-477zM237 98h361v-243h-361v243zM598 98v722h121v-722h-121z" />
<glyph unicode="6" d="M116 92v965h121v-237h361v-236h-361v-492h-121zM237 92h361v-230h-361v230zM237 1057v249h124v-249h-124zM361 1306v236h358v-236h-358zM598 92v492h121v-492h-121z" />
<glyph unicode="7" d="M118 1306v236h604v-485h-121v249h-483zM240 -150v734h121v-734h-121zM361 584v236h121v-236h-121zM482 820v237h119v-237h-119z" />
<glyph unicode="8" d="M116 92v492h121v-492h-121zM116 820v479h121v-479h-121zM237 92h364v-230h-364v230zM237 584v236h364v-236h-364zM237 1299v243h364v-243h-364zM601 92v492h118v-492h-118zM601 820v479h118v-479h-118z" />
<glyph unicode="9" d="M116 92h366v-237h-366v237zM116 826v473h124v-473h-124zM240 584v242h361v473h121v-959h-121v244h-361zM240 1299v243h361v-243h-361zM482 92v248h119v-248h-119z" />
<glyph unicode=":" d="M361 335v242h118v-242h-118zM361 820v242h118v-242h-118z" />
<glyph unicode=";" d="M240 98h121v-243h-121v243zM361 98v479h118v-479h-118zM361 820v237h118v-237h-118z" />
<glyph unicode="&#x3c;" d="M118 584v242h122v-242h-122zM240 340v244h121v-244h-121zM240 826v236h121v-236h-121zM240 826v236h121v-236h-121zM240 826v236h121v-236h-121zM240 826v236h121v-236h-121zM240 826v236h121v-236h-121zM361 98v242h121v-242h-121zM361 1062v237h121v-237h-121zM482 98 h116v-243h-116v243zM482 1299v243h116v-243h-116z" />
<glyph unicode="=" d="M118 335v242h601v-242h-601zM118 820v237h601v-237h-601z" />
<glyph unicode="&#x3e;" d="M241 94h115v-243h-115v243zM241 1295v243h115v-243h-115zM356 94v243h122v-243h-122zM356 1058v237h122v-237h-122zM478 337v242h121v-242h-121zM478 822v236h121v-236h-121zM478 822v236h121v-236h-121zM478 822h121v236h-121v-236zM478 822v236h121v-236h-121zM478 822 h121v236h-121v-236zM599 579v243h121v-243h-121z" />
<glyph unicode="?" d="M118 1062v237h119v-237h-119zM237 1299v243h364v-243h-364zM361 92h121v-230h-121v230zM361 340v480h121v-480h-121zM482 820v242h119v-242h-119zM601 1062v237h118v-237h-118z" />
<glyph unicode="@" d="M116 92v1214h124v-1214h-124zM240 92v-225h476v225h-476zM240 1306v236h358v-236h-358zM361 335v716h121v-225h116v480h118v-722h-118v-249h-237z" />
<glyph unicode="A" d="M116 -127v1184h121v-473h361v473h121v-1184h-121v467h-361v-467h-121zM237 1057v242h121v-242h-121zM358 1299v237h107v-237h-107h240v-242h-133v242h-107z" />
<glyph unicode="B" d="M116 -138v1674h479v-225h-355v-485h355v-249h-355v-485h355v-230h-479zM595 92v485h124v-485h-124zM595 826v485h124v-485h-124z" />
<glyph unicode="C" d="M118 104h122v1195h-122v-1195zM240 104v-237h355v237h-355zM240 1299v243h355v-243h-355zM595 104h121v231h-121v-231zM595 1069h121v230h-121v-230z" />
<glyph unicode="D" d="M118 -133v1663h477v-237h-358v-1201h358v-225h-477zM595 92v1201h124v-1201h-124z" />
<glyph unicode="E" d="M121 -133v1675h598v-243h-482v-473h358v-242h-358v-486h482v-231h-598z" />
<glyph unicode="F" d="M118 -133v1669h598v-230h-476v-480h358v-242h-358v-717h-122z" />
<glyph unicode="G" d="M118 92v1214h125v-1214h-125zM243 92v-225h479v705h-237v-232h113v-248h-355zM243 1306v236h479v-236h-479z" />
<glyph unicode="H" d="M121 -133v1669h116v-710h361v710h124v-1669h-124v722h-361v-722h-116z" />
<glyph unicode="I" d="M237 98h124v1213h-124v231h361v-231h-121v-1213h121v-231h-361v231z" />
<glyph unicode="J" d="M118 92v243h119v-243h-119zM237 92h358v-225h-358v225zM595 92v1444h124v-1444h-124z" />
<glyph unicode="K" d="M118 -133v1669h119v-710h121v-242h-121v-717h-119zM358 335v249h121v-249h-121zM358 826v236h121v-236h-121zM479 92v243h122v-243h-122zM479 1062v231h122v-231h-122zM601 92h115v-225h-115v225zM601 1293v243h115v-243h-115z" />
<glyph unicode="L" d="M118 -138v1680h122v-1456h482v-224h-604z" />
<glyph unicode="M" d="M118 -145v1681h122v-230h118v-244h-118v-1207h-122zM358 577v485h119v-485h-119zM477 1062v244h124v230h118v-1681h-118v1207h-124z" />
<glyph unicode="N" d="M121 -133v1675h113v-480h121v-248h-121v-947h-113zM355 577v237h124v-237h-124zM479 335v242h119v965h121v-1675h-121v468h-119z" />
<glyph unicode="O" d="M118 104v1195h119v-1195h-119zM237 104h358v-249h-358v249zM237 1299v243h358v-243h-358zM595 104v1195h118v-1195h-118z" />
<glyph unicode="P" d="M116 -133v1675h485v-236h-364v-480h364v-249h-364v-710h-121zM601 826v480h118v-480h-118z" />
<glyph unicode="Q" d="M118 98v1201h122v-1201h-122zM240 98h254v-236h-254v236zM240 1299v243h358v-243h-358zM384 294h104v249h-104v-249zM488 98h110v249h-110v-249zM598 98h118v-236h-118v236zM598 347v952h118v-952h-118z" />
<glyph unicode="R" d="M118 -138v1680h483v-236h-361v-486h361v-231h-119v-249h-124v249h-118v-727h-122zM482 98v242h119v-242h-119zM601 98h118v-236h-118v236zM601 820v486h118v-486h-118z" />
<glyph unicode="S" d="M116 104v236h121v-236h-121zM116 832v467h121v-467h-121zM237 104h364v-249h-364v249zM237 577v255h364v-255h-364zM237 1299v243h364v-243h-364zM601 104v473h121v-473h-121zM601 1057v242h121v-242h-121z" />
<glyph unicode="T" d="M116 1306v230h603v-230h-240v-1451h-121v1451h-242z" />
<glyph unicode="U" d="M116 92v1450h121v-1450h-121zM237 92h361v-225h-361v225zM598 92v1450h121v-1450h-121z" />
<glyph unicode="V" d="M116 335v1207h121v-1207h-121zM237 98v237h124v-237h-124zM361 98h118v-243h-118v243zM479 98v237h122v-237h-122zM601 335v1207h118v-1207h-118z" />
<glyph unicode="W" d="M116 -133v1675h121v-1202h121v-242h-121v-231h-121zM358 340v480h119v-480h-119zM477 98h124v-231h118v1675h-118v-1202h-124v-242z" />
<glyph unicode="X" d="M118 -138v473h122v-473h-122zM118 1062v480h122v-480h-122zM240 335v242h118v-242h-118zM240 832h118v230h-118v-230zM358 577v255h121v-255h-121zM479 335v242h119v-242h-119zM479 832v230h119v-230h-119zM598 -138v473h124v-473h-124zM598 1062v480h124v-480h-124z" />
<glyph unicode="Y" d="M116 1057v485h124v-485h-124zM240 832h118v225h-118v-225zM358 -145v977h121v-977h-121zM479 832v225h122v-225h-122zM601 1057v485h118v-485h-118z" />
<glyph unicode="Z" d="M118 -133h604v225h-479v248h-125v-473zM118 1306v236h604v-480h-121v244h-483zM243 340v244h118v-244h-118zM361 584v242h121v-242h-121zM482 826v236h119v-236h-119z" />
<glyph unicode="[" d="M118 -133v1669h580v-230h-329v-1208h329v-231h-580z" />
<glyph unicode="\" d="M118 1057v242h122v-242h-122zM240 820v237h121v-237h-121zM361 589v231h118v-231h-118zM479 340v249h119v-249h-119zM598 104v236h121v-236h-121z" />
<glyph unicode="]" d="M133 98h335v1208h-335v236h586v-1687h-586v243z" />
<glyph unicode="^" d="M118 335h119v242h-119v-242zM237 577v243h124v-243h-124zM361 820v237h121v-237h-121zM482 577v243h116v-243h-116zM598 335v242h121v-242h-121z" />
<glyph unicode="_" d="M0 -138h840v-249h-840v249z" />
<glyph unicode="`" d="M240 1299v243h118v-243h-118zM358 1057v242h124v-242h-124zM482 826v231h116v-231h-116z" />
<glyph unicode="a" d="M118 92v248h119v-248h-119zM237 92h364v248h-364v237h364v249h118v-959h-482v225zM237 826v236h364v-236h-364z" />
<glyph unicode="b" d="M118 -133v1675h119v-485h361v-231h-361v-728h361v-231h-480zM598 98v728h118v-728h-118z" />
<glyph unicode="c" d="M116 92v734h124v-734h-124zM240 92h479v-237h-479v237zM240 826v236h479v-236h-479z" />
<glyph unicode="d" d="M116 92v734h124v-734h-124zM240 92h361v734h-361v231h361v485h121v-1680h-482v230z" />
<glyph unicode="e" d="M116 92v734h124v-242h358v242h121v-479h-479v-255h-124zM240 92h479v-230h-479v230zM240 826v236h358v-236h-358z" />
<glyph unicode="f" d="M116 584v242h124v480h121v-480h237v-242h-237v-729h-121v729h-124zM304 1306v236h294v-236h-294zM598 1062v244h124v-244h-124z" />
<glyph unicode="g" d="M118 340v486h119v-486h-119zM237 98v242h361v486h121v-964h-121v236h-361zM237 -138h361v-249h-361v249zM237 826v231h361v-231h-361z" />
<glyph unicode="h" d="M118 -138v1680h122v-480h361v-236h-361v-964h-122zM601 -138v964h118v-964h-118z" />
<glyph unicode="i" d="M240 92h118v734h-118v231h242v-965h119v-230h-361v230zM358 1299v237h124v-237h-124z" />
<glyph unicode="j" d="M118 92h119v-237h-119v237zM237 -145h242v-237h-242v237zM361 826v236h240v-1207h-122v971h-118zM479 1311v225h122v-225h-122z" />
<glyph unicode="k" d="M116 -138v1680h124v-958h239v-244h-239v-478h-124zM479 98v242h122v-242h-122zM479 584v242h122v-242h-122zM601 98h118v-236h-118v236zM601 826v225h118v-225h-118z" />
<glyph unicode="l" d="M237 92h121v1207h-121v243h245v-1450h119v-237h-364v237z" />
<glyph unicode="m" d="M116 -138v1200h245v-242h-121v-958h-124zM361 92v728h121v-728h-121zM482 820v242h234v-1200h-113v958h-121z" />
<glyph unicode="n" d="M118 -133v1195h483v-236h-361v-959h-122zM601 -133v959h118v-959h-118z" />
<glyph unicode="o" d="M118 92v734h119v-734h-119zM237 92h364v-237h-364v237zM237 826v236h364v-236h-364zM601 92v734h121v-734h-121z" />
<glyph unicode="p" d="M116 -387v1449h482v-242h-358v-480h358v-242h-358v-485h-124zM598 340v480h121v-480h-121z" />
<glyph unicode="q" d="M118 335v485h122v-485h-122zM240 92v243h361v485h-361v237h482v-1444h-121v479h-361z" />
<glyph unicode="r" d="M116 -138v1195h121v-231h145v-242h-145v-722h-121zM358 826v231h364v-231h-364z" />
<glyph unicode="s" d="M118 92h480v-237h-480v237zM118 584v242h119v-242h-119zM237 340v244h361v-244h-361zM237 826v231h482v-231h-482zM598 92v248h121v-248h-121z" />
<glyph unicode="t" d="M118 820v242h122v474h121v-474h240v-242h-240v-728h-121v728h-122zM304 92h297v-225h-297v225zM601 92v243h118v-243h-118z" />
<glyph unicode="u" d="M116 98v959h121v-959h-121zM237 98h272v-243h-272v243zM433 98v242h168v717h121v-1202h-121v243h-168z" />
<glyph unicode="v" d="M118 335v722h119v-722h-119zM237 98v237h121v-237h-121zM358 98h124v-236h-124v236zM482 98v237h116v-237h-116zM598 335v722h124v-722h-124z" />
<glyph unicode="w" d="M116 -145v1202h124v-959h118v-243h-242zM358 98v479h121v-479h-121zM479 98h119v959h121v-1202h-240v243z" />
<glyph unicode="x" d="M118 98h119v-236h-119v236zM118 820v237h119v-237h-119zM237 98v242h121v-242h-121zM237 577v243h121v-243h-121zM358 340v237h121v-237h-121zM479 98v242h119v-242h-119zM479 577v243h119v-243h-119zM598 98h124v-236h-124v236zM598 820h124v237h-124v-237z" />
<glyph unicode="y" d="M116 335v722h124v-722h-124zM240 104v231h361v722h121v-1202h-121v249h-361zM240 -145h361v-242h-361v242z" />
<glyph unicode="z" d="M118 98h122v237h121v-237h358v-243h-601v243zM118 820v237h601v-237h-118v-243h-119v243h-364zM361 335v242h121v-242h-121z" />
<glyph unicode="{" d="M118 577v243h122v479h121v243h355v-243h-234v-479h-121v-243h121v-485h234v-237h-355v237h-121v485h-122z" />
<glyph unicode="|" d="M361 -387v1929h118v-1929h-118z" />
<glyph unicode="}" d="M118 98h243v486h118v236h-118v479h-243v243h361v-243h119v-479h121v-236h-121v-486h-119v-231h-361v231z" />
<glyph unicode="~" d="M118 1062v237h122v-237h-122zM240 1299v243h239v-243h119v243h121v-243h-121v-237h-237v237h-121z" />
<glyph unicode="&#xa2;" d="M-3 98v722h119v-722h-119zM116 98h121v-243h121v-242h-242v485zM116 820v242h242v-242h-242zM358 98h121v-243h-121v243zM358 1062v237h121v-237h-121zM479 -145h243v-242h-243v242zM479 820v242h243v-242h-243zM479 1299v237h122v-237h-122zM601 98v479h121v-479h-121z M722 98h121v-243h-121v243zM722 577v243h121v-243h-121z" />
<glyph unicode="&#xa3;" d="M-3 98v722h119v-722h-119zM116 98h121v-243h121v-242h-242v485zM116 820v242h242v-242h-242zM358 98h121v-243h-121v243zM358 1062v237h121v-237h-121zM479 -145h243v-242h-243v242zM479 820v242h243v-242h-243zM479 1299v237h122v-237h-122zM601 98v479h121v-479h-121z M722 98h121v-243h-121v243zM722 577v243h121v-243h-121z" />
<glyph unicode="&#xa5;" d="M-3 98v722h119v-722h-119zM116 98h121v-243h121v-242h-242v485zM116 820v242h242v-242h-242zM358 98h121v-243h-121v243zM358 1062v237h121v-237h-121zM479 -145h243v-242h-243v242zM479 820v242h243v-242h-243zM479 1299v237h122v-237h-122zM601 98v479h121v-479h-121z M722 98h121v-243h-121v243zM722 577v243h121v-243h-121z" />
<glyph unicode="&#xa8;" d="M-3 98v722h119v-722h-119zM116 98h121v-243h121v-242h-242v485zM116 820v242h242v-242h-242zM358 98h121v-243h-121v243zM358 1062v237h121v-237h-121zM479 -145h243v-242h-243v242zM479 820v242h243v-242h-243zM479 1299v237h122v-237h-122zM601 98v479h121v-479h-121z M722 98h121v-243h-121v243zM722 577v243h121v-243h-121z" />
<glyph unicode="&#xa9;" d="M-3 98v722h119v-722h-119zM116 98h121v-243h121v-242h-242v485zM116 820v242h242v-242h-242zM358 98h121v-243h-121v243zM358 1062v237h121v-237h-121zM479 -145h243v-242h-243v242zM479 820v242h243v-242h-243zM479 1299v237h122v-237h-122zM601 98v479h121v-479h-121z M722 98h121v-243h-121v243zM722 577v243h121v-243h-121z" />
<glyph unicode="&#xab;" d="M-3 98v722h119v-722h-119zM116 98h121v-243h121v-242h-242v485zM116 820v242h242v-242h-242zM358 98h121v-243h-121v243zM358 1062v237h121v-237h-121zM479 -145h243v-242h-243v242zM479 820v242h243v-242h-243zM479 1299v237h122v-237h-122zM601 98v479h121v-479h-121z M722 98h121v-243h-121v243zM722 577v243h121v-243h-121z" />
<glyph unicode="&#xad;" d="M118 584v242h604v-242h-604z" />
<glyph unicode="&#xae;" d="M-3 92h482v248h-121v244h121v236h-363v237h482v249h-119v230h364v-716h-121v-236h121v-244h-121v-478h-485v-249h-121v249h-119v230zM-3 340v480h119v-480h-119z" />
<glyph unicode="&#xb4;" d="M-3 98v722h119v-722h-119zM116 98h121v-243h121v-242h-242v485zM116 820v242h242v-242h-242zM358 98h121v-243h-121v243zM358 1062v237h121v-237h-121zM479 -145h243v-242h-243v242zM479 820v242h243v-242h-243zM479 1299v237h122v-237h-122zM601 98v479h121v-479h-121z M722 98h121v-243h-121v243zM722 577v243h121v-243h-121z" />
<glyph unicode="&#xbb;" d="M-3 98v722h119v-722h-119zM116 98h121v-243h121v-242h-242v485zM116 820v242h242v-242h-242zM358 98h121v-243h-121v243zM358 1062v237h121v-237h-121zM479 -145h243v-242h-243v242zM479 820v242h243v-242h-243zM479 1299v237h122v-237h-122zM601 98v479h121v-479h-121z M722 98h121v-243h-121v243zM722 577v243h121v-243h-121z" />
<glyph unicode="&#x2c6;" d="M-3 98v722h121v237h240v-237h121v237h240v-237h121v-236h-121v-486h121v-236h-121v-249h-240v249h-121v-249h-240v485h-121zM358 1057v249h121v-249h-121zM479 1306v236h116v-236h-116z" />
<glyph unicode="&#x2dc;" d="M-3 347v230h121v243h122v237h121v242h118v-242h119v-237h121v-243h119v-230h-359v-480h-118v480h-364zM719 92h119v-479h-119v479zM719 1057v485h119v-485h-119z" />
<glyph unicode="&#x2000;" horiz-adv-x="774" />
<glyph unicode="&#x2001;" horiz-adv-x="1548" />
<glyph unicode="&#x2002;" horiz-adv-x="774" />
<glyph unicode="&#x2003;" horiz-adv-x="1548" />
<glyph unicode="&#x2004;" horiz-adv-x="516" />
<glyph unicode="&#x2005;" horiz-adv-x="387" />
<glyph unicode="&#x2006;" horiz-adv-x="258" />
<glyph unicode="&#x2007;" horiz-adv-x="258" />
<glyph unicode="&#x2008;" horiz-adv-x="193" />
<glyph unicode="&#x2009;" horiz-adv-x="309" />
<glyph unicode="&#x200a;" horiz-adv-x="86" />
<glyph unicode="&#x2010;" d="M118 584v242h604v-242h-604z" />
<glyph unicode="&#x2011;" d="M118 584v242h604v-242h-604z" />
<glyph unicode="&#x2012;" d="M118 584v242h604v-242h-604z" />
<glyph unicode="&#x2013;" d="M-3 577v243h364v479h118v-479h361v-243h-121v-237h-121v-242h-119v-236h-118v236h-121v242h-119v237h-124zM719 98h121v-485h-121v485zM719 1062v480h121v-480h-121z" />
<glyph unicode="&#x2014;" d="M-3 1306v230h846v-230h-846z" />
<glyph unicode="&#x2018;" d="M-3 584v242h119v-242h-119zM116 826v243h118v-243h-118zM234 1069v230h124v243h124v-243h116v-230h-116v-1456h-124v1456h-124zM598 826v243h118v-243h-118zM716 584v242h119v-242h-119z" />
<glyph unicode="&#x2019;" d="M-3 98v237h121v249h119v236h124v-485h358v1207h121v-1444h-479v-485h-124v242h-119v243h-121z" />
<glyph unicode="&#x201a;" d="M-3 340v237h361v-237h121v-478h-121v236h-118v242h-243zM-3 826v231h361v-231h-361zM358 1057v242h240v-242h-240zM479 -138h361v-249h-361v249z" />
<glyph unicode="&#x201c;" d="M-3 1306v236h843v-236h-843z" />
<glyph unicode="&#x201d;" d="M-3 -387v1929h725v-1929h-725z" />
<glyph unicode="&#x201e;" d="M-3 577v243h364v479h118v-479h361v-243h-121v-237h-121v-242h-119v-236h-118v236h-121v242h-119v237h-124zM719 98h121v-485h-121v485zM719 1062v480h121v-480h-121z" />
<glyph unicode="&#x2022;" d="M-3 -145h482v-242h-482v242zM-3 1306v236h240v-236h-240zM95 584v236h118v242h131v244h135v236h122v-722h239v-236h-239v-729h-122v249h-135v236h-131v244h-118zM601 -145v-242h239v242h-239z" />
<glyph unicode="&#x2026;" d="M-3 98v242h121v-242h-121zM-3 -145h121v-242h-121v242zM-3 584v242h121v-242h-121zM-3 1062v244h121v-244h-121zM-3 1062v244h121v-244h-121zM118 98v-243h119v243h-119zM118 98v-243h119v243h-119zM118 340h119v244h-119v-244zM118 340h119v244h-119v-244zM118 826h119 v236h-119v-236zM118 826h119v236h-119v-236zM118 826h119v236h-119v-236zM118 1306v230h119v-230h-119zM237 98h124v242h-124v-242zM237 -145v-242h124v242h-124zM237 584h124v242h-124v-242zM237 584h124v242h-124v-242zM237 1062h124v244h-124v-244zM361 98v-243h118v243 h-118zM361 340h118v244h-118v-244zM361 826h118v236h-118v-236zM361 1306v230h118v-230h-118zM479 98h122v242h-122v-242zM479 -145v-242h122v242h-122zM479 584h122v242h-122v-242zM479 1062h122v244h-122v-244zM601 98v-243h118v243h-118zM601 340h118v244h-118v-244z M601 826h118v236h-118v-236zM601 1306v230h118v-230h-118zM719 98h121v242h-121v-242zM719 -145v-242h121v242h-121zM719 584h121v242h-121v-242zM719 1062v244h121v-244h-121z" />
<glyph unicode="&#x202f;" horiz-adv-x="309" />
<glyph unicode="&#x2039;" d="M-3 -138h121v236h122v-236h121v236h121v-236h119v236h118v-236h121v-249h-843v249zM-3 1306v230h843v-230h-121v-249h-118v249h-361v-237h-122v237h-121zM240 98v242h121v-242h-121zM240 826v236h121v-236h-121zM361 340v486h121v-486h-121zM482 98v242h119v-242h-119z M482 826v231h119v-231h-119z" />
<glyph unicode="&#x203a;" d="M-3 577v243h604v237h118v-237h121v-243h-121v-242h-118v242h-604zM361 98h121v-243h-121v243zM361 1299v243h121v-243h-121zM482 98v237h119v-237h-119zM482 1057v242h119v-242h-119z" />
<glyph unicode="&#x205f;" horiz-adv-x="387" />
<glyph unicode="&#x20ac;" d="M-3 584v236h119v-236h-119zM116 335v249h121v-249h-121zM237 -138v473h121v-473h-121zM358 335v249h119v-249h-119zM479 584v236h119v-236h-119zM598 820v237h121v-237h-121zM719 1057v242h124v-242h-124z" />
<glyph unicode="&#x2122;" d="M-3 -387v1929h119v-1687h724v-242h-843z" />
<glyph unicode="&#xe000;" horiz-adv-x="1058" d="M0 0v1058h1058v-1058h-1058z" />
</font>
</defs>
</svg>
