<?xml version="1.0" standalone="no"?>
<!DOCTYPE svg PUBLIC "-//W3C//DTD SVG 1.1//EN" "http://www.w3.org/Graphics/SVG/1.1/DTD/svg11.dtd" >
<svg xmlns="http://www.w3.org/2000/svg">
<metadata></metadata>
<defs>
<font id="sansationbold_italic" horiz-adv-x="1247" >
<font-face units-per-em="2048" ascent="1638" descent="-410" />
<missing-glyph horiz-adv-x="454" />
<glyph unicode="ffi" horiz-adv-x="1060" d="M0 0v1060h1060v-1060h-1060z" />
<glyph horiz-adv-x="2048" />
<glyph horiz-adv-x="2048" />
<glyph unicode="&#xd;" horiz-adv-x="393" />
<glyph unicode=" "  horiz-adv-x="454" />
<glyph unicode="&#x09;" horiz-adv-x="454" />
<glyph unicode="&#xa0;" horiz-adv-x="454" />
<glyph unicode="!" horiz-adv-x="570" d="M8 0l50 247h267l-49 -247h-268zM83 374l214 1070h268l-215 -1070h-267z" />
<glyph unicode="&#x22;" horiz-adv-x="823" d="M189 1005l57 439h248l-118 -439h-187zM563 1005l57 439h248l-119 -439h-186z" />
<glyph unicode="#" horiz-adv-x="1911" d="M27 347l62 156h406l166 382h-405l61 155h416l181 399h182l-181 -399h382l184 404h181l-182 -404h396l-62 -155h-406l-166 -382h405l-61 -156h-416l-162 -352h-182l162 352h-382l-162 -352h-181l160 352h-396zM678 503h380l167 382h-381z" />
<glyph unicode="$" horiz-adv-x="1035" d="M29 232l45 222q162 -70 394 -70q172 0 195 111q20 101 -96 101h-192q-323 0 -259 323q56 278 392 324l40 201h258l-39 -197q135 -12 252 -55l-44 -222q-163 70 -370 70q-217 0 -239 -111q-21 -101 106 -101h171q354 0 289 -323q-55 -279 -379 -324l-36 -181h-257l35 177 q-148 12 -266 55z" />
<glyph unicode="%" horiz-adv-x="1517" d="M-42 0l1316 1444h267l-1316 -1444h-267zM188 1151q60 303 392 303q327 0 266 -303q-64 -322 -392 -322q-331 0 -266 322zM380 1153q-30 -148 110 -148q135 0 164 148q26 126 -110 126q-139 0 -164 -126zM675 302q62 313 394 313q327 0 264 -313q-62 -312 -390 -312 q-331 0 -268 312zM867 304q-28 -138 112 -138q135 0 162 138q28 135 -108 135q-139 0 -166 -135z" />
<glyph unicode="&#x26;" horiz-adv-x="1348" d="M40 418q47 229 249 316q-168 86 -122 311q79 399 595 399q186 0 353 -50l-42 -212q-167 50 -341 50q-260 0 -297 -182q-42 -212 165 -212h341l29 144h144l75 -144h184l-43 -212h-163l-27 -131q-100 -498 -653 -498q-530 0 -447 421zM309 423q-41 -211 222 -211 q285 0 342 285l26 129h-339q-210 0 -251 -203z" />
<glyph unicode="'" horiz-adv-x="449" d="M189 1005l57 439h248l-118 -439h-187z" />
<glyph unicode="(" horiz-adv-x="646" d="M64 530q91 458 384 914h268q-294 -456 -385 -914q-92 -457 19 -914h-267q-111 457 -19 914z" />
<glyph unicode=")" horiz-adv-x="646" d="M-144 -384q292 457 384 914q92 458 -19 914h268q111 -456 19 -914q-92 -457 -385 -914h-267z" />
<glyph unicode="*" horiz-adv-x="818" d="M190 1162l79 151l192 -104l16 235h157l-76 -234l231 102l18 -148l-238 -44l126 -172l-144 -93l-72 208l-155 -207l-108 90l198 173z" />
<glyph unicode="+" horiz-adv-x="959" d="M42 424l43 212h273l54 273h212l-54 -273h272l-42 -212h-273l-54 -272h-212l54 272h-273z" />
<glyph unicode="," horiz-adv-x="469" d="M-169 -252l240 439h267l-239 -439h-268z" />
<glyph unicode="-" horiz-adv-x="707" d="M42 424l43 212h505l-43 -212h-505z" />
<glyph unicode="." horiz-adv-x="469" d="M-42 0l49 247h268l-50 -247h-267z" />
<glyph unicode="/" horiz-adv-x="1070" d="M-118 0l1021 1444h288l-1021 -1444h-288z" />
<glyph unicode="0" horiz-adv-x="1459" d="M92 720q146 734 791 734q633 0 487 -734q-147 -730 -780 -730q-645 0 -498 730zM371 726q-101 -504 265 -504q356 0 457 504q99 496 -257 496q-366 0 -465 -496z" />
<glyph unicode="1" horiz-adv-x="696" d="M109 0l245 1223h-152l22 110l448 142l-295 -1475h-268z" />
<glyph unicode="2" horiz-adv-x="1191" d="M-42 0l40 202q822 502 888 828q38 192 -224 192q-223 0 -442 -111l49 242q217 101 439 101q530 0 445 -424q-74 -374 -738 -798h579l-47 -232h-989z" />
<glyph unicode="3" horiz-adv-x="1126" d="M-32 50l48 243q188 -71 410 -71q273 0 309 182q43 212 -151 212h-352l47 232h348q197 0 240 212q32 162 -241 162q-222 0 -438 -71l48 243q214 60 437 60q540 0 461 -394q-47 -238 -255 -328q172 -86 124 -328q-83 -414 -623 -414q-222 0 -412 60z" />
<glyph unicode="4" horiz-adv-x="1232" d="M-20 313l40 202l777 929h287l-756 -919h423l97 483h268l-97 -483l122 -137l-15 -75h-149l-63 -313h-268l63 313h-729z" />
<glyph unicode="5" horiz-adv-x="1171" d="M-7 50l44 223q188 -71 400 -71q288 0 339 252q46 233 -232 233q-227 0 -434 -51l212 808h863l-43 -212h-632l-95 -355q62 22 172 22q545 0 456 -445q-93 -464 -658 -464q-202 0 -392 60z" />
<glyph unicode="6" horiz-adv-x="1262" d="M69 556q112 561 881 932l85 -209q-388 -163 -567 -393q131 43 257 43q529 0 441 -444q-99 -495 -668 -495q-542 0 -429 566zM327 562q-71 -360 222 -360q296 0 353 283q46 232 -228 232q-156 0 -307 -48q-27 -41 -40 -107z" />
<glyph unicode="7" horiz-adv-x="1181" d="M45 0l901 1212h-746l46 232h1031l-43 -212l-895 -1232h-294z" />
<glyph unicode="8" horiz-adv-x="1292" d="M23 428q45 225 281 335q-155 95 -108 326q74 369 599 369t451 -369q-46 -231 -244 -326q197 -110 152 -335q-87 -438 -643 -438q-576 0 -488 438zM290 422q-41 -200 273 -200q282 0 323 200q42 214 -254 214q-300 0 -342 -214zM458 1058q-39 -189 224 -189q252 0 291 189 q32 164 -224 164q-259 0 -291 -164z" />
<glyph unicode="9" horiz-adv-x="1277" d="M153 973q96 484 665 484q542 0 429 -565q-112 -562 -881 -932l-85 209q378 162 569 403q-133 -54 -259 -54q-529 0 -438 455zM416 973q-48 -243 226 -243q156 0 307 49q27 40 40 107q71 359 -222 359q-296 0 -351 -272z" />
<glyph unicode=":" horiz-adv-x="494" d="M-17 0l49 247h268l-50 -247h-267zM145 813l50 247h268l-50 -247h-268z" />
<glyph unicode=";" horiz-adv-x="621" d="M-93 -252l239 439h268l-239 -439h-268zM272 813l49 247h268l-50 -247h-267z" />
<glyph unicode="&#x3c;" horiz-adv-x="1111" d="M44 434l39 192l986 384l-51 -252l-625 -232l534 -223l-50 -253z" />
<glyph unicode="=" horiz-adv-x="959" d="M6 242l42 212h758l-42 -212h-758zM79 606l42 212h758l-43 -212h-757z" />
<glyph unicode="&#x3e;" horiz-adv-x="1111" d="M-32 50l50 253l623 223l-532 232l51 252l832 -384l-39 -192z" />
<glyph unicode="?" horiz-adv-x="1126" d="M109 0l50 247h267l-49 -247h-268zM184 374l89 444h267q258 0 304 232q37 182 -236 182q-192 0 -414 -50l42 212q223 50 414 50q521 0 442 -394q-89 -444 -594 -444l-47 -232h-267z" />
<glyph unicode="@" horiz-adv-x="2211" d="M67 545q181 909 1185 909q1006 0 825 -909q-140 -697 -622 -697q-304 0 -258 227l28 151l4 47q-174 -273 -412 -273q-372 0 -269 516q110 544 660 544q185 0 437 -43l-178 -898q-13 -58 68 -58q177 0 274 484q139 697 -584 697q-751 0 -891 -697q-143 -717 539 -717 l-43 -212q-949 0 -763 929zM814 518q-60 -296 99 -296q196 0 362 277l63 321q-60 24 -202 24q-257 0 -322 -326z" />
<glyph unicode="A" horiz-adv-x="1577" d="M-118 0l902 1444h288l337 -1444h-278l-86 394h-479l138 232h291l-119 543l-709 -1169h-285z" />
<glyph unicode="B" horiz-adv-x="1334" d="M8 0l289 1444h677q354 0 353 -248q0 -41 -9 -88q-48 -246 -338 -353q230 -44 230 -244q0 -39 -9 -84q-86 -427 -537 -427h-656zM322 232h377q178 0 214 182q7 33 7 61q0 164 -227 164h-81l34 173q345 56 389 279q3 17 3 31q0 90 -128 90h-392z" />
<glyph unicode="C" horiz-adv-x="1403" d="M106 742q142 712 920 712q238 0 410 -70l-48 -243q-171 81 -388 81q-520 0 -616 -480q-17 -87 -17 -159q0 -361 433 -361q217 0 420 81l-48 -242q-201 -71 -439 -71q-651 0 -651 528q0 102 24 224z" />
<glyph unicode="D" horiz-adv-x="1509" d="M8 0l289 1444h566q602 0 602 -481q0 -92 -22 -201q-152 -762 -869 -762h-566zM322 232h298q450 0 556 530q15 76 15 138q0 312 -375 312h-298z" />
<glyph unicode="E" horiz-adv-x="1250" d="M8 0l289 1444h989l-47 -230h-723l-73 -364h689l-47 -239h-692l-76 -379h740l-46 -232h-1003z" />
<glyph unicode="F" horiz-adv-x="1175" d="M8 0l289 1444h948l-46 -230h-683l-73 -364h649l-48 -239h-651l-122 -611h-263z" />
<glyph unicode="G" horiz-adv-x="1403" d="M106 742q142 712 920 712q238 0 410 -70l-48 -243q-171 81 -388 81q-520 0 -616 -480q-18 -91 -18 -166q0 -354 405 -354q72 0 170 24l84 421h268l-120 -600q-190 -77 -453 -77q-639 0 -639 525q0 104 25 227z" />
<glyph unicode="H" horiz-adv-x="1550" d="M8 0l289 1444h268l-120 -596h712l120 596h267l-289 -1444h-267l123 616h-712l-123 -616h-268z" />
<glyph unicode="I" horiz-adv-x="570" d="M8 0l289 1444h268l-289 -1444h-268z" />
<glyph unicode="J" horiz-adv-x="747" d="M-118 0l46 232q303 0 340 184l206 1028h267l-206 -1028q-83 -416 -653 -416z" />
<glyph unicode="K" horiz-adv-x="1464" d="M8 0l289 1444h268l-289 -1444h-268zM492 675l34 173l677 596h337l-801 -701l587 -743h-350z" />
<glyph unicode="L" horiz-adv-x="1093" d="M8 0l289 1444h268l-243 -1212h574l-47 -232h-841z" />
<glyph unicode="M" horiz-adv-x="1818" d="M8 0l289 1444h278l270 -1096l699 1096h268l-289 -1444h-247l201 1006l-593 -1006h-229l-198 1006l-201 -1006h-248z" />
<glyph unicode="N" horiz-adv-x="1590" d="M8 0l289 1444h268l556 -1032l206 1032h258l-289 -1444h-268l-551 1054l-211 -1054h-258z" />
<glyph unicode="O" horiz-adv-x="1641" d="M102 720q146 734 872 734q592 0 592 -505q0 -104 -25 -229q-146 -730 -860 -730q-595 0 -595 538q0 89 16 192zM381 726q-19 -93 -19 -169q0 -335 365 -335q437 0 538 504q18 92 18 166q0 330 -356 330q-447 0 -546 -496z" />
<glyph unicode="P" horiz-adv-x="1265" d="M8 0l289 1444h646q374 0 374 -290q0 -54 -13 -117q-88 -441 -711 -534l9 238q377 66 421 288q6 29 6 54q0 126 -150 126h-362l-241 -1209h-268z" />
<glyph unicode="Q" horiz-adv-x="1641" d="M102 720q146 734 872 734q592 0 592 -505q0 -104 -25 -229q-133 -663 -736 -724q39 -175 263 -178q131 0 218 30l-43 -212q-87 -30 -218 -30q-451 0 -451 379v10q-488 46 -488 533q0 89 16 192zM381 726q-19 -93 -19 -169q0 -335 365 -335q437 0 538 504q18 92 18 166 q0 330 -356 330q-447 0 -546 -496z" />
<glyph unicode="R" horiz-adv-x="1328" d="M8 2l289 1442h656q377 0 377 -280q0 -49 -12 -107q-62 -306 -431 -433l333 -624h-312l-314 629l24 122q372 66 418 298q5 25 5 46q0 114 -152 114h-367l-241 -1207h-273z" />
<glyph unicode="S" horiz-adv-x="1292" d="M-5 61l48 242q201 -81 475 -81q332 0 377 222q4 22 4 41q0 121 -176 121h-226q-375 0 -375 290q0 52 12 114q89 444 720 444q243 0 446 -70l-49 -243q-201 81 -443 81q-364 0 -406 -212q-5 -25 -5 -46q0 -116 148 -116h227q403 0 402 -295q0 -50 -11 -109 q-91 -454 -691 -454q-274 0 -477 71z" />
<glyph unicode="T" horiz-adv-x="1095" d="M99 1212l46 232h1096l-46 -232h-414l-243 -1212h-267l242 1212h-414z" />
<glyph unicode="U" horiz-adv-x="1545" d="M121 568l176 876h268l-176 -876q-11 -56 -11 -104q0 -242 296 -242q353 0 422 346l176 876h267l-175 -876q-116 -578 -737 -578q-524 0 -524 411q0 77 18 167z" />
<glyph unicode="V" horiz-adv-x="1527" d="M145 1444h308l227 -1106l667 1106h326l-923 -1444h-287z" />
<glyph unicode="W" horiz-adv-x="1908" d="M129 0l52 1444h261l-52 -1037l583 1037h257l153 -997l362 997h274l-561 -1444h-254l-171 1133l-652 -1133h-252z" />
<glyph unicode="X" horiz-adv-x="1517" d="M-118 0l713 722l-424 722h328l294 -537l504 537h348l-712 -722l423 -722h-328l-294 537l-504 -537h-348z" />
<glyph unicode="Y" horiz-adv-x="1313" d="M171 1444h277l267 -696l521 696h288l-719 -939l-101 -505h-268l101 505z" />
<glyph unicode="Z" horiz-adv-x="1262" d="M-17 0l46 232l978 980h-762l47 232h1050l-46 -232l-965 -980h769l-47 -232h-1070z" />
<glyph unicode="[" horiz-adv-x="686" d="M-119 -384l365 1828h536l-43 -212h-267l-281 -1404h268l-43 -212h-535z" />
<glyph unicode="\" horiz-adv-x="1060" d="M171 1444h277l444 -1444h-278z" />
<glyph unicode="]" horiz-adv-x="686" d="M-170 -384l43 212h267l281 1404h-267l42 212h535l-365 -1828h-536z" />
<glyph unicode="^" horiz-adv-x="1060" d="M48 707l552 737h151l257 -737h-232l-156 478l-339 -478h-233z" />
<glyph unicode="_" horiz-adv-x="1060" d="M-161 -212l43 212h1010l-43 -212h-1010z" />
<glyph unicode="`" horiz-adv-x="669" d="M246 1444h323l93 -261h-227z" />
<glyph unicode="a" horiz-adv-x="1198" d="M35 516q109 544 660 544q185 0 437 -43l-203 -1017h-237l24 273q-174 -273 -412 -273q-291 0 -291 316q0 88 22 200zM301 518q-16 -81 -16 -140q0 -156 115 -156q196 0 362 277l63 321q-60 24 -202 24q-257 0 -322 -326z" />
<glyph unicode="b" horiz-adv-x="1189" d="M-8 43l280 1401h267l-127 -636q171 252 419 252q276 0 276 -300q0 -83 -21 -188q-115 -572 -634 -572q-218 0 -460 43zM300 245q86 -29 207 -29q242 0 313 353q13 62 13 110q0 159 -138 159q-166 0 -327 -256z" />
<glyph unicode="c" horiz-adv-x="949" d="M25 540q104 520 650 520q151 0 276 -30l-42 -212q-125 30 -257 30q-297 0 -359 -308q-13 -67 -13 -120q0 -208 205 -208q171 0 329 131l-42 -212q-158 -131 -350 -131q-416 0 -416 366q0 79 19 174z" />
<glyph unicode="d" horiz-adv-x="1198" d="M35 516q109 544 660 544q82 0 177 -8l78 392h268l-289 -1444h-237l24 273q-174 -273 -412 -273q-291 0 -291 316q0 88 22 200zM301 518q-16 -81 -16 -140q0 -156 115 -156q196 0 362 277l63 321q-60 24 -202 24q-257 0 -322 -326z" />
<glyph unicode="e" horiz-adv-x="1091" d="M25 542q104 518 612 518q397 0 397 -243q0 -34 -8 -74q-63 -317 -491 -317h-265q-6 -29 -5 -53q0 -161 241 -161q211 0 398 131l-42 -212q-167 -131 -419 -131q-436 0 -436 373q0 77 18 169zM309 622h268q166 0 190 114q2 12 2 22q0 92 -174 92q-222 0 -286 -228z" />
<glyph unicode="f" horiz-adv-x="723" d="M-203 -296q154 136 202 377l196 979q87 437 564 437q130 0 228 -41l-43 -212q-92 41 -229 41q-208 0 -252 -225h318l-43 -212h-318l-153 -767q-65 -321 -289 -523z" />
<glyph unicode="g" horiz-adv-x="1198" d="M-54 -333l43 212q144 -51 339 -51q299 0 334 172l54 273q-174 -273 -412 -273q-291 0 -291 316q0 88 22 200q109 544 660 544q185 0 437 -43l-203 -1017q-77 -384 -645 -384q-196 0 -338 51zM301 518q-16 -81 -16 -140q0 -156 115 -156q196 0 362 277l63 321 q-60 24 -202 24q-257 0 -322 -326z" />
<glyph unicode="h" d="M-17 0l289 1444h267l-144 -721q193 337 489 337q250 0 250 -229q0 -52 -13 -115l-143 -716h-268l143 719q4 19 4 35q0 90 -123 90q-191 0 -382 -336l-102 -508h-267z" />
<glyph unicode="i" horiz-adv-x="520" d="M-17 0l212 1060h268l-213 -1060h-267zM229 1232l43 212h267l-42 -212h-268z" />
<glyph unicode="j" horiz-adv-x="520" d="M-203 -296q154 136 202 377l196 979h268l-196 -979q-65 -321 -289 -523zM229 1232l43 212h267l-42 -212h-268z" />
<glyph unicode="k" horiz-adv-x="1223" d="M-17 0l289 1444h267l-133 -668q221 284 484 284q276 0 275 -205q0 -37 -8 -80q-40 -202 -359 -345l241 -430h-307l-205 400l17 84q314 81 351 261q2 13 2 24q0 79 -123 79q-185 0 -413 -297l-111 -551h-267z" />
<glyph unicode="l" horiz-adv-x="520" d="M-17 0l289 1444h267l-289 -1444h-267z" />
<glyph unicode="m" horiz-adv-x="1853" d="M-17 0l212 1060h237l-38 -345q182 345 412 345q246 0 246 -229q0 -53 -13 -118q203 347 432 347q260 0 260 -258q0 -64 -16 -144l-131 -658h-268l133 668q8 41 8 72q0 104 -91 104q-170 0 -348 -339l-101 -505h-268l134 665q8 41 8 73q0 106 -90 106q-178 0 -350 -339 l-101 -505h-267z" />
<glyph unicode="n" d="M-17 0l212 1060h237l-41 -357q197 357 493 357q250 0 250 -229q0 -52 -13 -115l-143 -716h-268l143 719q4 19 4 35q0 90 -123 90q-191 0 -382 -336l-102 -508h-267z" />
<glyph unicode="o" horiz-adv-x="1181" d="M38 530q108 541 624 541q426 0 425 -370q0 -78 -18 -171q-108 -539 -624 -539q-425 0 -425 370q0 77 18 169zM307 534q-14 -71 -14 -126q0 -206 195 -206q247 0 314 332q13 67 13 121q0 203 -196 203q-247 0 -312 -324z" />
<glyph unicode="p" horiz-adv-x="1189" d="M-94 -384l289 1444h237l-20 -252q171 252 419 252q275 0 275 -299q0 -83 -21 -189q-114 -572 -633 -572q-97 0 -200 9l-78 -393h-268zM300 245q86 -29 207 -29q242 0 313 353q13 62 13 110q0 159 -138 159q-166 0 -328 -256z" />
<glyph unicode="q" horiz-adv-x="1198" d="M35 516q109 544 660 544q185 0 437 -43l-280 -1401h-267l131 657q-174 -273 -412 -273q-291 0 -291 316q0 88 22 200zM301 518q-16 -81 -16 -140q0 -156 115 -156q196 0 362 277l63 321q-60 24 -202 24q-257 0 -322 -326z" />
<glyph unicode="r" horiz-adv-x="737" d="M-17 0l212 1060h237l-37 -337q180 337 386 337l-46 -226q-200 0 -383 -326l-102 -508h-267z" />
<glyph unicode="s" horiz-adv-x="1035" d="M-7 50l44 223q163 -71 394 -71q173 0 195 111q3 15 3 28q0 73 -99 73h-192q-269 0 -269 224q0 45 11 99q66 334 538 334q200 0 365 -61l-45 -222q-162 70 -369 70q-218 0 -240 -111q-3 -14 -3 -26q0 -75 109 -75h172q299 0 299 -231q0 -42 -10 -92q-67 -333 -517 -333 q-221 0 -386 60z" />
<glyph unicode="t" horiz-adv-x="686" d="M40 286l189 946h198l6 -172h247l-43 -212h-217l-98 -487q-5 -28 -5 -50q0 -99 104 -99h89l-42 -212h-219q-219 0 -219 194q0 42 10 92z" />
<glyph unicode="u" d="M52 344l143 716h268l-144 -719q-4 -18 -4 -34q0 -91 123 -91q191 0 382 336l102 508h268l-212 -1060h-238l42 358q-197 -358 -493 -358q-250 0 -250 229q0 52 13 115z" />
<glyph unicode="v" horiz-adv-x="1090" d="M69 1060h282l110 -741l416 741h282l-643 -1060h-254z" />
<glyph unicode="w" horiz-adv-x="1600" d="M43 556q56 277 202 504h268q-146 -227 -202 -504q-21 -104 -21 -175q0 -149 93 -149q187 0 251 324l101 504h268l-101 -504q-17 -84 -17 -146q0 -178 139 -178q136 0 201 324q28 138 28 264t-28 240h268q28 -114 28 -240t-28 -264q-111 -556 -515 -556q-238 0 -265 292 q-139 -292 -377 -292q-317 0 -317 342q0 94 24 214z" />
<glyph unicode="x" horiz-adv-x="1090" d="M-143 0l503 530l-291 530h288l180 -341l314 341h308l-501 -530l289 -530h-287l-181 341l-314 -341h-308z" />
<glyph unicode="y" d="M-5 -333l42 212q145 -51 340 -51q299 0 333 172l72 358q-197 -358 -493 -358q-250 0 -250 229q0 52 13 115l143 716h268l-144 -719q-4 -18 -4 -34q0 -91 123 -91q191 0 382 336l102 508h268l-212 -1060q-77 -384 -646 -384q-196 0 -337 51z" />
<glyph unicode="z" horiz-adv-x="969" d="M-63 0l41 202l639 646h-490l43 212h787l-42 -212l-641 -646h492l-41 -202h-788z" />
<glyph unicode="{" horiz-adv-x="762" d="M40 414l47 232q212 0 275 316q61 305 228 482h267q-166 -177 -228 -482q-70 -356 -338 -432q237 -76 167 -431q-62 -305 34 -483h-268q-96 178 -34 483q62 315 -150 315z" />
<glyph unicode="|" horiz-adv-x="570" d="M-69 -384l366 1828h268l-366 -1828h-268z" />
<glyph unicode="}" horiz-adv-x="762" d="M-170 -384q167 178 229 483q70 355 257 431q-156 76 -86 432q62 305 -34 482h268q96 -177 34 -482q-63 -316 149 -316l-46 -232q-212 0 -275 -315q-61 -305 -228 -483h-268z" />
<glyph unicode="~" horiz-adv-x="959" d="M38 404l43 212q71 62 176 62q86 0 196 -42q111 -40 201 -40q111 0 192 60l-42 -212q-71 -60 -176 -60q-87 0 -197 40q-110 42 -201 42q-110 0 -192 -62z" />
<glyph unicode="&#xa2;" horiz-adv-x="949" d="M65 736q87 436 483 506l41 202h257l-37 -191q97 -7 182 -27l-43 -212q-125 30 -256 30q-298 0 -360 -308q-65 -328 192 -328q172 0 329 131l-42 -212q-98 -82 -210 -113l-43 -214h-258l41 205q-370 61 -276 531z" />
<glyph unicode="&#xa3;" horiz-adv-x="1229" d="M-48 -30l42 214q203 76 235 233q23 118 -19 294t-13 326q84 417 647 417q273 0 411 -101l-48 -242q-133 131 -412 131q-277 0 -317 -203q-30 -145 -5 -201h390l-43 -212h-317q18 -105 -2 -206q-27 -138 -100 -180q22 4 49 4q85 0 208 -43q45 -17 97 -17q127 0 286 99 l-46 -233q-139 -84 -304 -84q-95 0 -197 28q-124 32 -243 32q-154 0 -299 -56z" />
<glyph unicode="&#xa5;" horiz-adv-x="1262" d="M67 241l42 212h322l22 113h-322l43 212h279l-257 666h268l191 -515l404 515h298l-550 -666h286l-43 -212h-329l-22 -113h329l-42 -212h-330l-48 -241h-268l49 241h-322z" />
<glyph unicode="&#xa8;" horiz-adv-x="762" d="M208 1252l38 192h218l-39 -192h-217zM551 1252l39 192h217l-38 -192h-218z" />
<glyph unicode="&#xa9;" horiz-adv-x="1802" d="M155 730q144 724 899 724q745 0 600 -724q-148 -740 -892 -740q-756 0 -607 740zM260 726q-130 -645 500 -645q658 0 787 645q128 638 -511 638q-649 0 -776 -638zM486 735q84 420 504 420q166 0 283 -51l-21 -99q-114 59 -266 59q-328 0 -394 -329q-72 -355 256 -355 q153 0 291 58l-20 -99q-136 -51 -303 -51q-420 0 -330 447z" />
<glyph unicode="&#xab;" horiz-adv-x="1089" d="M13 530l336 379h275l-336 -379l185 -378h-275zM467 530l336 379h275l-337 -379l185 -378h-275z" />
<glyph unicode="&#xad;" horiz-adv-x="707" d="M42 424l43 212h505l-43 -212h-505z" />
<glyph unicode="&#xae;" horiz-adv-x="1174" d="M215 1033q86 431 520 431q438 0 352 -431q-84 -419 -521 -419q-423 0 -351 419zM289 1035q-73 -364 288 -364q363 0 436 364q75 373 -289 373q-360 0 -435 -373zM418 764l108 541h232q154 0 128 -129q-21 -106 -183 -157l135 -255h-92l-124 243l9 45q161 26 180 121 q14 74 -73 74h-154l-96 -483h-70z" />
<glyph unicode="&#xb4;" horiz-adv-x="669" d="M194 1183l198 261h322l-294 -261h-226z" />
<glyph unicode="&#xb8;" horiz-adv-x="693" d="M-117 -376l26 130q99 -51 208 -51t120 56q8 44 -75 44h-185l187 273h166l-112 -154q216 0 184 -163q-37 -185 -311 -185q-109 0 -208 50z" />
<glyph unicode="&#xbb;" horiz-adv-x="1089" d="M-63 152l337 378l-185 379h275l184 -379l-336 -378h-275zM391 152l336 378l-185 379h275l185 -379l-336 -378h-275z" />
<glyph unicode="&#x2c6;" horiz-adv-x="707" d="M194 1182l229 262h152l124 -262h-182l-44 131l-97 -131h-182z" />
<glyph unicode="&#x2da;" horiz-adv-x="658" d="M232 1375q43 212 273 212q226 0 184 -212q-43 -211 -269 -211q-230 0 -188 211zM323 1377q-27 -139 112 -139q136 0 163 139q27 135 -108 135q-140 0 -167 -135z" />
<glyph unicode="&#x2dc;" horiz-adv-x="707" d="M195 1186l42 212q70 46 141 46q52 0 106 -26q53 -26 110 -26q76 0 156 46l-42 -212q-70 -46 -140 -46q-53 0 -106 26q-54 26 -111 26q-75 0 -156 -46z" />
<glyph unicode="&#x401;" horiz-adv-x="1250" d="M8 0l289 1444h989l-47 -230h-723l-73 -364h689l-47 -239h-692l-76 -379h740l-46 -232h-1003zM539 1636l38 192h218l-39 -192h-217zM882 1636l39 192h217l-38 -192h-218z" />
<glyph unicode="&#x410;" horiz-adv-x="1577" d="M-118 0l902 1444h288l337 -1444h-278l-86 394h-479l138 232h291l-119 543l-709 -1169h-285z" />
<glyph unicode="&#x411;" horiz-adv-x="1303" d="M8 0l289 1444h1011l-47 -232h-742l-195 -977h330q211 0 244 171q38 190 -226 190h-109l46 232h118q523 0 442 -411q-84 -417 -545 -417h-616z" />
<glyph unicode="&#x412;" horiz-adv-x="1334" d="M8 0l289 1444h677q412 0 344 -336q-48 -246 -338 -353q275 -53 221 -328q-86 -427 -537 -427h-656zM322 232h377q178 0 214 182q45 225 -220 225h-81l34 173q345 56 389 279q24 121 -125 121h-392z" />
<glyph unicode="&#x413;" horiz-adv-x="1093" d="M8 0l289 1444h942l-46 -232h-675l-242 -1212h-268z" />
<glyph unicode="&#x414;" horiz-adv-x="1796" d="M-220 -384l123 616h186q419 0 615 980l46 232h930l-243 -1212h187l-123 -616h-268l77 384h-1187l-77 -384h-266zM487 232h683l196 980h-394q-162 -807 -485 -980z" />
<glyph unicode="&#x415;" horiz-adv-x="1250" d="M8 0l289 1444h989l-47 -230h-723l-73 -364h689l-47 -239h-692l-76 -379h740l-46 -232h-1003z" />
<glyph unicode="&#x416;" horiz-adv-x="2231" d="M-118 0q444 576 547 659.5t187 106.5q-146 39 -194.5 252.5t-167.5 213.5h-80l42 212h108q281 0 346.5 -295t207.5 -295l-39 -194q-78 0 -162 -73t-458 -587h-337zM838 0l289 1444h268l-289 -1444h-268zM1370 660l38 194q141 0 325 295t465 295h108l-43 -212h-79 q-109 0 -243.5 -213.5t-305.5 -252.5q74 -23 143.5 -106.5t283.5 -659.5h-317q-167 514 -221.5 587t-153.5 73z" />
<glyph unicode="&#x417;" horiz-adv-x="1126" d="M-32 50l48 243q188 -71 410 -71q273 0 309 182q43 212 -151 212h-352l47 232h348q197 0 240 212q32 162 -241 162q-222 0 -438 -71l48 243q214 60 437 60q540 0 461 -394q-47 -238 -255 -328q172 -86 124 -328q-83 -414 -623 -414q-222 0 -412 60z" />
<glyph unicode="&#x418;" horiz-adv-x="1499" d="M8 0l289 1444h257l-210 -1051l882 1051h268l-289 -1444h-258l204 1018l-875 -1018h-268z" />
<glyph unicode="&#x419;" horiz-adv-x="1499" d="M8 0l289 1444h257l-210 -1051l882 1051h268l-289 -1444h-258l204 1018l-875 -1018h-268zM672 1802h176q-28 -142 93 -142q122 0 150 142h177q-59 -293 -357 -293t-239 293z" />
<glyph unicode="&#x41a;" horiz-adv-x="1400" d="M8 0l289 1444h268l-289 -1444h-268zM539 660l39 194q141 0 325 295t465 295h108l-43 -212h-80q-109 0 -243 -213.5t-305 -252.5q74 -23 143.5 -106.5t283.5 -659.5h-317q-168 514 -222.5 587t-153.5 73z" />
<glyph unicode="&#x41b;" horiz-adv-x="1529" d="M-143 0l42 212q347 0 445 492l149 740h1030l-289 -1444h-267l242 1212h-495l-102 -508q-140 -704 -755 -704z" />
<glyph unicode="&#x41c;" horiz-adv-x="1818" d="M8 0l289 1444h278l270 -1096l699 1096h268l-289 -1444h-247l201 1006l-593 -1006h-229l-198 1006l-201 -1006h-248z" />
<glyph unicode="&#x41d;" horiz-adv-x="1580" d="M8 0l289 1444h268l-118 -586h743l117 586h268l-289 -1444h-268l125 626h-742l-125 -626h-268z" />
<glyph unicode="&#x41e;" horiz-adv-x="1641" d="M102 720q146 734 872 734q714 0 567 -734q-146 -730 -860 -730q-693 0 -579 730zM381 726q-101 -504 346 -504q437 0 538 504q99 496 -338 496q-447 0 -546 -496z" />
<glyph unicode="&#x41f;" horiz-adv-x="1580" d="M8 0l289 1444h1278l-289 -1444h-268l242 1212h-742l-242 -1212h-268z" />
<glyph unicode="&#x420;" horiz-adv-x="1265" d="M8 0l289 1444h646q443 0 361 -407q-88 -441 -711 -534l9 238q377 66 421 288q35 180 -144 180h-362l-241 -1209h-268z" />
<glyph unicode="&#x421;" horiz-adv-x="1403" d="M106 742q142 712 920 712q238 0 410 -70l-48 -243q-171 81 -388 81q-520 0 -616 -480q-104 -520 416 -520q217 0 420 81l-48 -242q-201 -71 -439 -71q-777 0 -627 752z" />
<glyph unicode="&#x422;" horiz-adv-x="1095" d="M99 1212l46 232h1096l-46 -232h-414l-243 -1212h-267l242 1212h-414z" />
<glyph unicode="&#x423;" horiz-adv-x="1320" d="M36 71l43 212q93 -71 211 -71q135 0 194 107l-288 1125h277l191 -838l479 838h297l-732 -1173q-170 -271 -447 -271q-130 0 -225 71z" />
<glyph unicode="&#x424;" horiz-adv-x="1741" d="M102 720q114 573 758 610l23 114h266l-22 -113q629 -34 514 -611q-115 -574 -758 -607l-22 -113h-267l23 114q-629 38 -515 606zM380 726q-69 -341 284 -379l149 750q-367 -37 -433 -371zM930 346q366 35 436 380q67 339 -286 372z" />
<glyph unicode="&#x425;" horiz-adv-x="1517" d="M-118 0l713 722l-424 722h328l294 -537l504 537h348l-712 -722l423 -722h-328l-294 537l-504 -537h-348z" />
<glyph unicode="&#x426;" horiz-adv-x="1562" d="M8 0l289 1444h268l-243 -1212h669l242 1212h268l-243 -1212h187l-123 -616h-268l77 384h-1123z" />
<glyph unicode="&#x427;" horiz-adv-x="1401" d="M183 1001l89 443h267l-89 -446q-57 -287 204 -287q232 0 435 134l120 599h268l-289 -1444h-268l118 590q-221 -115 -456 -115q-504 0 -399 526z" />
<glyph unicode="&#x428;" horiz-adv-x="2014" d="M8 0l289 1444h268l-243 -1212h455l242 1212h268l-243 -1212h455l242 1212h268l-289 -1444h-1712z" />
<glyph unicode="&#x429;" horiz-adv-x="2126" d="M8 0l289 1444h268l-243 -1212h455l242 1212h268l-243 -1212h455l242 1212h268l-243 -1212h187l-123 -616h-268l77 384h-1631z" />
<glyph unicode="&#x42a;" horiz-adv-x="1727" d="M99 1212l46 232h775l-241 -1209h412q159 0 193 171q38 190 -176 190h-190l47 232h200q483 0 402 -411q-84 -417 -507 -417h-696l242 1212h-507z" />
<glyph unicode="&#x42b;" horiz-adv-x="1732" d="M8 0l289 1444h268l-242 -1209h412q160 0 193 171q39 190 -176 190h-189l46 232h200q484 0 402 -411q-84 -417 -506 -417h-697zM1250 0l289 1444h268l-289 -1444h-268z" />
<glyph unicode="&#x42c;" horiz-adv-x="1290" d="M8 0l289 1444h268l-242 -1209h412q160 0 193 171q39 190 -176 190h-189l46 232h199q485 0 403 -411q-84 -417 -506 -417h-697z" />
<glyph unicode="&#x42d;" horiz-adv-x="1388" d="M-7 50l48 243q173 -71 370 -71q467 0 576 394h-808l46 232h809q52 374 -423 374q-197 0 -398 -71l49 243q199 60 416 60q757 0 615 -712q-151 -752 -908 -752q-217 0 -392 60z" />
<glyph unicode="&#x42e;" horiz-adv-x="2022" d="M8 0l289 1444h267l-120 -596h248q176 606 753 606q623 0 477 -734q-146 -730 -770 -730q-587 0 -508 626h-246l-123 -616h-267zM943 726q-101 -504 256 -504q345 0 446 504q99 496 -246 496q-357 0 -456 -496z" />
<glyph unicode="&#x42f;" horiz-adv-x="1388" d="M-118 0l583 624q-315 152 -246 501q65 319 537 319h627l-289 -1442h-273l242 1207h-357q-190 0 -223 -170q-45 -222 336 -288l-24 -122l-566 -629h-347z" />
<glyph unicode="&#x430;" horiz-adv-x="1198" d="M35 516q109 544 660 544q185 0 437 -43l-203 -1017h-237l24 273q-174 -273 -412 -273q-372 0 -269 516zM301 518q-60 -296 99 -296q196 0 362 277l63 321q-60 24 -202 24q-257 0 -322 -326z" />
<glyph unicode="&#x431;" horiz-adv-x="1203" d="M37 525l66 328q118 591 718 591q245 0 439 110l-45 -225q-174 -97 -439 -97q-325 0 -391 -331q155 159 360 159q451 0 349 -510l-5 -25q-107 -535 -630 -535q-529 0 -422 535zM310 525q-65 -323 191 -323q254 0 319 323q64 317 -181 317q-265 0 -329 -317z" />
<glyph unicode="&#x432;" horiz-adv-x="1152" d="M38 530q110 551 706 551q412 0 351 -306q-28 -145 -273 -225q235 -53 198 -240q-66 -330 -557 -330q-535 0 -425 550zM306 530q-70 -348 196 -348q218 0 247 144q22 108 -123 108h-111l36 183q250 35 273 151q22 111 -127 111q-321 0 -391 -349z" />
<glyph unicode="&#x433;" horiz-adv-x="1030" d="M-3 323q65 323 418 323h152q126 0 146 101q22 111 -195 111q-177 0 -368 -70l45 222q189 61 358 61q472 0 405 -334q-64 -323 -387 -323h-172q-116 0 -136 -101q-23 -111 150 -111q201 0 392 71l-44 -223q-189 -60 -380 -60q-451 0 -384 333z" />
<glyph unicode="&#x434;" horiz-adv-x="1191" d="M41 545q103 515 542 515q179 0 270 -90q-50 262 -385 262h-208l42 212h210q749 0 592 -788q-133 -666 -656 -666q-518 0 -407 555zM305 545q-69 -343 187 -343q253 0 343 450q19 97 13 156q-80 50 -226 50q-254 0 -317 -313z" />
<glyph unicode="&#x435;" horiz-adv-x="1091" d="M25 542q104 518 612 518q453 0 389 -317q-63 -317 -491 -317h-265q-43 -214 236 -214q211 0 398 131l-42 -212q-167 -131 -419 -131q-526 0 -418 542zM309 622h268q166 0 190 114q22 114 -172 114q-222 0 -286 -228z" />
<glyph unicode="&#x436;" horiz-adv-x="2071" d="M-77 30l43 212q74 -30 145 -30q187 0 247 298q67 338 -89 338q-91 0 -208 -80l42 212q127 80 238 80q362 0 298 -463l234 41l84 422h268l-75 -372l276 49q134 323 472 323q91 0 176 -30l-43 -212q-75 30 -145 30q-187 0 -247 -298q-67 -338 89 -338q91 0 208 81l-42 -212 q-128 -81 -239 -81q-383 0 -289 522l-258 -46l-95 -476h-268l85 426l-237 -42q-126 -384 -494 -384q-91 0 -176 30z" />
<glyph unicode="&#x437;" horiz-adv-x="893" d="M-73 50l45 223q188 -71 339 -71q152 0 174 111q24 121 -89 121h-291l42 212h288q116 0 143 130q16 82 -136 82q-151 0 -367 -70l44 222q214 61 366 61q419 0 360 -295q-31 -156 -186 -236q124 -75 93 -227q-64 -323 -483 -323q-152 0 -342 60z" />
<glyph unicode="&#x438;" d="M52 344l143 716h268l-144 -719q-25 -125 119 -125q191 0 382 336l102 508h268l-212 -1060h-238l42 358q-197 -358 -493 -358q-306 0 -237 344z" />
<glyph unicode="&#x439;" d="M52 344l143 716h268l-144 -719q-25 -125 119 -125q191 0 382 336l102 508h268l-212 -1060h-238l42 358q-197 -358 -493 -358q-306 0 -237 344zM471 1444h177q-28 -141 93 -141t150 141h176q-58 -293 -356 -293t-240 293z" />
<glyph unicode="&#x43a;" horiz-adv-x="1210" d="M-17 0l213 1068h268l-214 -1068h-267zM452 468l37 184q114 0 238 207t355 207h108l-44 -219h-79q-99 0 -185.5 -122t-191.5 -172q124 -21 238 -286l114 -267h-297l-99 248q-84 220 -194 220z" />
<glyph unicode="&#x43b;" horiz-adv-x="1254" d="M-143 0l42 212q239 0 282 212l41 207q86 429 530 429h445l-212 -1060h-268l170 848h-177q-177 0 -219 -212l-43 -212q-84 -424 -591 -424z" />
<glyph unicode="&#x43c;" horiz-adv-x="1525" d="M-17 0l212 1060h288l214 -724l483 724h288l-213 -1060h-247l129 646l-440 -646h-148l-189 646l-130 -646h-247z" />
<glyph unicode="&#x43d;" horiz-adv-x="1227" d="M-17 0l212 1060h268l-83 -414h439l83 414h268l-213 -1060h-267l87 434h-440l-87 -434h-267z" />
<glyph unicode="&#x43e;" horiz-adv-x="1181" d="M38 530q108 541 624 541q515 0 407 -541q-108 -539 -624 -539q-513 0 -407 539zM307 534q-67 -332 181 -332q247 0 314 332q65 324 -183 324q-247 0 -312 -324z" />
<glyph unicode="&#x43f;" d="M-17 0l212 1060h237l-41 -357q197 357 493 357q306 0 237 -344l-143 -716h-268l143 719q26 125 -119 125q-191 0 -382 -336l-102 -508h-267z" />
<glyph unicode="&#x440;" horiz-adv-x="1189" d="M-94 -384l289 1444h237l-20 -252q171 252 419 252q352 0 254 -488q-114 -572 -633 -572q-97 0 -200 9l-78 -393h-268zM300 245q86 -29 207 -29q242 0 313 353q54 269 -125 269q-166 0 -328 -256z" />
<glyph unicode="&#x441;" horiz-adv-x="949" d="M25 540q104 520 650 520q151 0 276 -30l-42 -212q-125 30 -257 30q-297 0 -359 -308q-66 -328 192 -328q171 0 329 131l-42 -212q-158 -131 -350 -131q-505 0 -397 540z" />
<glyph unicode="&#x442;" horiz-adv-x="1853" d="M-17 0l212 1060h237l-38 -345q182 345 412 345q303 0 233 -347q203 347 432 347q325 0 244 -402l-131 -658h-268l133 668q36 176 -83 176q-170 0 -348 -339l-101 -505h-268l134 665q35 179 -82 179q-178 0 -350 -339l-101 -505h-267z" />
<glyph unicode="&#x443;" horiz-adv-x="1091" d="M-47 -260q192 78 309 254l-193 1066h283l116 -763l414 763h278l-658 -1091q-175 -289 -457 -411z" />
<glyph unicode="&#x444;" horiz-adv-x="1859" d="M30 489q114 571 633 571q98 0 200 -9l78 393h268l-127 -636q170 252 419 252q351 0 253 -488q-114 -572 -632 -572q-98 0 -200 9l-79 -393h-267l127 636q-171 -252 -419 -252q-352 0 -254 489zM295 492q-54 -270 125 -270q166 0 328 257l67 336q-86 29 -207 29 q-242 0 -313 -352zM970 245q85 -29 207 -29q242 0 313 353q53 269 -125 269q-166 0 -329 -256z" />
<glyph unicode="&#x445;" horiz-adv-x="1090" d="M-143 0l503 530l-291 530h288l180 -341l314 341h308l-501 -530l289 -530h-287l-181 341l-314 -341h-308z" />
<glyph unicode="&#x446;" horiz-adv-x="1343" d="M52 344l143 716h268l-144 -719q-25 -125 119 -125q191 0 382 336l102 508h268l-180 -898l197 50q-60 -298 -220 -596h-268q139 192 188 434l-167 -50l42 358q-197 -358 -493 -358q-306 0 -237 344z" />
<glyph unicode="&#x447;" horiz-adv-x="1260" d="M101 718l69 342h267l-68 -345q-46 -226 125 -226q201 0 353 134l88 437h268l-212 -1060h-268l78 388q-171 -115 -376 -115q-413 0 -324 445z" />
<glyph unicode="&#x448;" horiz-adv-x="1853" d="M64 403l131 657h268l-134 -667q-35 -177 84 -177q170 0 348 340l101 504h267l-133 -664q-35 -180 82 -180q177 0 349 340l101 504h268l-212 -1060h-238l39 345q-182 -345 -412 -345q-303 0 -234 347q-203 -347 -431 -347q-325 0 -244 403z" />
<glyph unicode="&#x449;" horiz-adv-x="1949" d="M64 403l131 657h268l-134 -667q-35 -177 84 -177q170 0 348 340l101 504h267l-133 -664q-35 -180 82 -180q177 0 349 340l101 504h268l-180 -898l197 50q-60 -298 -220 -596h-268q139 192 188 434l-167 -50l39 345q-182 -345 -412 -345q-303 0 -234 347 q-203 -347 -431 -347q-325 0 -244 403z" />
<glyph unicode="&#x44a;" horiz-adv-x="1325" d="M26 848l43 212h574l-131 -657q-37 -188 183 -188q200 0 225 130q20 98 -83 98h-179l42 212h190q362 0 301 -309q-70 -346 -543 -346q-484 0 -404 403l89 445h-307z" />
<glyph unicode="&#x44b;" horiz-adv-x="1555" d="M64 403l131 657h268l-132 -657q-37 -188 203 -188q180 0 205 130q21 98 -83 98h-179l42 212h189q364 0 302 -309q-70 -346 -522 -346q-505 0 -424 403zM1018 0l212 1060h268l-212 -1060h-268z" />
<glyph unicode="&#x44c;" horiz-adv-x="1144" d="M64 403l131 657h268l-132 -657q-37 -188 203 -188q180 0 205 130q21 98 -83 98h-179l42 212h189q364 0 302 -309q-70 -346 -522 -346q-505 0 -424 403z" />
<glyph unicode="&#x44d;" horiz-adv-x="964" d="M-62 30l43 212q125 -30 256 -30q272 0 348 223h-501l42 212h502q14 201 -263 201q-132 0 -269 -30l42 212q138 30 289 30q556 0 454 -510q-110 -550 -666 -550q-151 0 -277 30z" />
<glyph unicode="&#x44e;" horiz-adv-x="1653" d="M-17 0l212 1060h267l-83 -414h208q122 425 585 425q491 0 383 -543q-108 -538 -600 -538q-473 0 -412 444h-207l-87 -434h-266zM839 534q-66 -332 159 -332q214 0 281 332q64 324 -150 324q-225 0 -290 -324z" />
<glyph unicode="&#x44f;" horiz-adv-x="1131" d="M-118 0l415 453q-208 119 -161 357q51 250 392 250h546l-212 -1060h-268l169 845h-256q-84 0 -101 -89q-26 -131 187 -176l-28 -143l-374 -437h-309z" />
<glyph unicode="&#x451;" horiz-adv-x="1091" d="M25 542q104 518 612 518q453 0 389 -317q-63 -317 -491 -317h-265q-43 -214 236 -214q211 0 398 131l-42 -212q-167 -131 -419 -131q-526 0 -418 542zM309 622h268q166 0 190 114q22 114 -172 114q-222 0 -286 -228zM378 1252l38 192h218l-39 -192h-217zM721 1252l39 192 h217l-38 -192h-218z" />
<glyph unicode="&#x2000;" horiz-adv-x="914" />
<glyph unicode="&#x2001;" horiz-adv-x="1828" />
<glyph unicode="&#x2002;" horiz-adv-x="914" />
<glyph unicode="&#x2003;" horiz-adv-x="1828" />
<glyph unicode="&#x2004;" horiz-adv-x="609" />
<glyph unicode="&#x2005;" horiz-adv-x="457" />
<glyph unicode="&#x2006;" horiz-adv-x="304" />
<glyph unicode="&#x2007;" horiz-adv-x="304" />
<glyph unicode="&#x2008;" horiz-adv-x="228" />
<glyph unicode="&#x2009;" horiz-adv-x="365" />
<glyph unicode="&#x200a;" horiz-adv-x="101" />
<glyph unicode="&#x2010;" horiz-adv-x="707" d="M42 424l43 212h505l-43 -212h-505z" />
<glyph unicode="&#x2011;" horiz-adv-x="707" d="M42 424l43 212h505l-43 -212h-505z" />
<glyph unicode="&#x2012;" horiz-adv-x="707" d="M42 424l43 212h505l-43 -212h-505z" />
<glyph unicode="&#x2013;" horiz-adv-x="1212" d="M42 424l43 212h1010l-43 -212h-1010z" />
<glyph unicode="&#x2014;" horiz-adv-x="1717" d="M42 424l43 212h1515l-43 -212h-1515z" />
<glyph unicode="&#x2018;" horiz-adv-x="499" d="M108 1005l239 439h248l-239 -439h-248z" />
<glyph unicode="&#x2019;" horiz-adv-x="499" d="M108 1005l239 439h248l-239 -439h-248z" />
<glyph unicode="&#x201a;" horiz-adv-x="439" d="M-143 -252l239 439h187l-240 -439h-186z" />
<glyph unicode="&#x201c;" horiz-adv-x="934" d="M108 1005l239 439h248l-239 -439h-248zM542 1005l240 439h247l-239 -439h-248z" />
<glyph unicode="&#x201d;" horiz-adv-x="934" d="M108 1005l239 439h248l-239 -439h-248zM542 1005l240 439h247l-239 -439h-248z" />
<glyph unicode="&#x201e;" horiz-adv-x="934" d="M-143 -252l239 439h247l-239 -439h-247zM291 -252l239 439h248l-240 -439h-247z" />
<glyph unicode="&#x2022;" horiz-adv-x="636" d="M104 732q43 217 261 217q217 0 173 -217q-43 -217 -260 -217t-174 217z" />
<glyph unicode="&#x2026;" horiz-adv-x="1479" d="M-42 0l49 247h268l-50 -247h-267zM463 0l49 247h268l-50 -247h-267zM968 0l49 247h268l-50 -247h-267z" />
<glyph unicode="&#x202f;" horiz-adv-x="365" />
<glyph unicode="&#x2039;" horiz-adv-x="636" d="M13 530l336 379h275l-336 -379l185 -378h-275z" />
<glyph unicode="&#x203a;" horiz-adv-x="636" d="M-63 152l337 378l-185 379h275l184 -379l-336 -378h-275z" />
<glyph unicode="&#x205f;" horiz-adv-x="457" />
<glyph unicode="&#x20ac;" horiz-adv-x="1398" d="M106 742q142 712 900 712q217 0 392 -60l-49 -243q-172 71 -369 71q-422 0 -537 -230h680l-42 -212h-700l-14 -71h700l-43 -212h-680q3 -275 436 -275q197 0 398 71l-49 -243q-199 -60 -416 -60q-757 0 -607 752z" />
<glyph unicode="&#x2122;" horiz-adv-x="1622" d="M283 1373l14 71h516l-14 -71h-214l-121 -608h-88l121 608h-214zM768 765l135 679h111l137 -566l358 566h107l-135 -679h-79l109 548l-351 -548h-69l-137 548l-109 -548h-77z" />
</font>
</defs>
</svg>
