<svg enable-background="new 0.5 0.5 304.879 63.504" height="63.504" viewBox=".5 .5 304.879 63.504" width="304.879" xmlns="http://www.w3.org/2000/svg"><g fill="#009109"><path d="m.5.932h17.657v63.072h-17.657v-9.072h12.528v-44.928h-12.528z"/><path d="m66.456 63.355h-4.536v-17.496h-13.104v17.496h-4.536v-44.279h4.536v17.712h13.104v-17.712h4.536zm-13.104-44.279h-4.535v-9.072h4.535zm0-9.072v-9.072h3.996v9.072h-3.996 8.532v9.072h-4.536v-9.072z"/><path d="m93.636.5v9.072h-13.392v18.36h13.392v9.071h-13.392v17.713h13.392v9.071h-17.928v-63.287zm4.464 27.432h-4.536v-18.36h4.536zm0 9.071v17.713h-4.536v-17.713z"/><path d="m107.135 10.004h4.536v17.496h-4.536zm0 35.855h4.536v9.072h-4.536zm4.536-44.927h13.607v9.072h-13.607zm13.607 27v9.071h-13.607v-9.071zm0 27v9.072h-13.607v-9.072zm4.536-44.928v9.072h-4.536v-9.072zm0 27.217v17.711h-4.536v-17.711z"/><path d="m138.67 10.004h4.536v44.928h-4.536zm4.5-9.072h13.393v9.072h-13.393zm13.392 63.072h-13.392v-9.072h13.393zm4.5-54v44.928h-4.536v-44.928z"/><path d="m169.991.932h4.535v45.144h-4.535zm9.071 45.144v9.072h-4.535v-9.072zm4.571 8.856v9.072h-4.535v-9.072zm-.035-8.856h4.535v9.072h-4.535zm4.535-45.144h4.537v45.144h-4.537z"/><path d="m201.524 19.076h4.536v26.783h-4.536zm9.037-9.072v9.072h-4.536v-9.072zm0 35.855v9.072h-4.536v-9.072zm-.037-44.927h4.536v9.072h-4.536zm0 53.784h4.536v9.071h-4.536z"/><path d="m242.024.716h4.536v9.072h-4.536zm0 54.216h4.536v9.072h-4.536zm9.073-44.928v9.072h-4.536v-9.072zm0 45.217h-4.536v-9.072h4.536zm4.5-36.145v27.072h-4.536v-27.072z"/><path d="m273.844 9.788h4.535v9.072h-4.535zm0 0h4.535v9.072h-4.535zm0 17.928h4.535v9.073h-4.535zm0 18.143h4.535v9.072h-4.535zm4.535-44.711h4.43v8.64h-4.43zm0 26.568h4.43v-8.856h-4.43zm0 0h4.43v-8.856h-4.43zm0 0h4.43v-8.856h-4.43zm0 18.143h4.43v-9.07h-4.43zm0 0h4.43v-9.07h-4.43zm0 18.145h4.43v-9.072h-4.43zm0 0h4.43v-9.072h-4.43zm4.43-45.144h4.645v-9.072h-4.645zm0 17.929h4.645v-9.073h-4.645zm0 0h4.645v-9.073h-4.645zm0 18.143h4.645v-9.072h-4.645zm4.643-53.784h4.428v8.64h-4.428zm0 26.568h4.428v-8.856h-4.428zm0 18.143h4.428v-9.07h-4.428zm0 18.145h4.428v-9.072h-4.428zm4.427-45.144h4.537v-9.072h-4.537zm0 17.929h4.537v-9.073h-4.537zm0 18.143h4.537v-9.072h-4.537zm4.538-53.784h4.428v8.64h-4.428zm0 26.568h4.428v-8.856h-4.428zm0 18.143h4.428v-9.07h-4.428zm0 18.145h4.428v-9.072h-4.428zm8.962-54.216v9.072h-4.535v-9.072zm-4.535 27.001h4.535v-9.073h-4.535zm0 18.143h4.535v-9.072h-4.535z"/></g></svg>