<?xml version="1.0" standalone="no"?>
<!DOCTYPE svg PUBLIC "-//W3C//DTD SVG 20010904//EN"
 "http://www.w3.org/TR/2001/REC-SVG-20010904/DTD/svg10.dtd">
<svg version="1.0" xmlns="http://www.w3.org/2000/svg"
 width="874.000000pt" height="229.000000pt" viewBox="0 0 874.000000 229.000000"
 preserveAspectRatio="xMidYMid meet">
<metadata>
Created by potrace 1.16, written by Peter Selinger 2001-2019
</metadata>
<g transform="translate(0.000000,229.000000) scale(0.100000,-0.100000)"
fill="#37474f" stroke="none">
<path d="M230 1160 l0 -970 160 0 160 0 0 970 0 970 -160 0 -160 0 0 -970z"/>
<path d="M800 1160 l0 -970 155 0 155 0 2 955 c0 525 1 961 2 968 1 9 -38 13
-156 15 l-158 3 0 -971z"/>
<path d="M1790 1160 l0 -970 160 0 160 0 0 970 0 970 -160 0 -160 0 0 -970z"/>
<path d="M2360 1160 l0 -970 160 0 160 0 0 970 0 970 -160 0 -160 0 0 -970z"/>
<path d="M2930 1160 l0 -970 160 0 160 0 0 970 0 970 -160 0 -160 0 0 -970z"/>
<path d="M4061 1160 l1 -970 234 0 234 0 2 535 3 534 159 -267 c88 -147 207
-347 265 -444 l106 -178 111 0 112 0 179 303 c99 166 220 370 269 452 l89 150
3 -542 2 -543 230 0 230 0 0 970 0 970 -213 0 -212 0 -141 -237 c-78 -131
-210 -355 -294 -498 -84 -143 -173 -295 -199 -337 -25 -43 -48 -78 -51 -78 -5
0 -356 588 -581 972 l-104 177 -218 1 -217 0 1 -970z"/>
<path d="M7093 1877 c-62 -138 -175 -394 -252 -567 -76 -173 -152 -344 -169
-380 -16 -36 -69 -155 -117 -265 -48 -110 -96 -218 -106 -241 -34 -76 -99
-227 -99 -231 0 -2 116 -3 258 -3 l257 0 27 69 c14 37 50 125 79 195 l54 126
433 -2 434 -3 39 -95 c21 -52 58 -139 81 -192 l41 -98 262 0 263 0 -120 267
c-182 408 -238 534 -238 538 0 2 -18 41 -39 87 -22 45 -94 207 -161 358 -66
151 -162 368 -213 483 l-92 207 -255 0 -255 0 -112 -253z m418 -373 c28 -66
84 -202 125 -303 41 -101 82 -197 90 -212 l15 -29 -281 0 c-154 0 -280 2 -280
5 0 6 65 166 130 320 23 55 60 143 81 195 54 131 63 149 67 146 2 -2 26 -57
53 -122z"/>
</g>
</svg>
